<svg width="484" height="414" viewBox="0 0 484 414" fill="none" xmlns="http://www.w3.org/2000/svg">
<path d="M398.168 316.784C398.168 316.784 493.029 319.877 482.718 343.593C472.407 367.308 362.08 386.899 389.919 401.334C417.759 415.769 68.2171 417.831 56.8751 403.396C45.5331 388.961 117.71 394.116 109.461 372.463C101.212 350.81 -51.9609 340.462 24.6251 304.907C101.213 269.354 384.764 265.23 398.168 316.784Z" fill="#F0F7FB"/>
<path d="M432.194 316.784C432.194 316.784 442.101 151.512 413.634 145.622C403.433 143.512 428.024 124.502 413.795 145.793C405.396 119.161 397.78 97.4648 392.706 88.1198C374.056 53.7638 339.699 127.384 304.494 183.335C269.289 239.286 288.656 35.1128 229.76 16.4628C170.864 -2.18719 149.269 225.544 111.968 196.096C74.6671 166.648 102.375 286.082 64.0921 249.763C25.8091 213.444 20.7861 316.784 20.7861 316.784L337.737 309.962L395.652 324.686L435.287 325.032C435.287 325.032 434.161 324.138 432.194 316.784Z" fill="#D8E9F4"/>
<path d="M15.7719 225.545C15.7719 225.545 15.7059 224.856 15.6279 223.591" stroke="#BAD8EB" stroke-width="0.9816" stroke-miterlimit="10"/>
<path d="M15.449 219.662C14.817 199.208 17.032 132.069 72.705 125.422C138.472 117.569 89.392 204.932 63.871 151.925C38.349 98.9181 110.988 29.2251 155.16 64.5621C155.16 64.5621 269.026 159.777 305.836 82.2311C340.26 9.71207 379.405 -3.57394 397.18 4.64106" stroke="#BAD8EB" stroke-width="0.9816" stroke-miterlimit="10" stroke-dasharray="3.94 3.94"/>
<path d="M398.93 5.55908C399.501 5.89708 400.045 6.26109 400.56 6.64709" stroke="#BAD8EB" stroke-width="0.9816" stroke-miterlimit="10"/>
<path d="M220.916 142.062C220.916 142.062 244.234 75.7068 195.733 79.4378C147.232 83.1688 177.079 131.002 168.685 142.062C160.291 153.122 144.435 142.195 122.049 142.062C99.6643 141.929 89.4043 192.295 131.376 202.555C173.348 212.815 140.703 224.007 119.251 219.344C97.7993 214.68 78.2123 249.191 130.449 273.443C165.157 289.556 209.281 294.006 245.154 278.828C257.372 273.659 296.194 250.842 279.383 233.19C270.287 223.639 239.748 229.962 252.153 208.192C255.287 202.693 260.672 198.838 266.266 195.878C278.506 189.4 295.109 186.496 292.596 169.164C288.421 140.364 245.174 144.951 225.581 148.457L220.916 142.062Z" stroke="#DD4C65" stroke-width="0.9816" stroke-miterlimit="10"/>
<path d="M202.1 113.721V324.215" stroke="#37424F" stroke-width="1.9645" stroke-miterlimit="10"/>
<path d="M382.181 111.23C382.181 111.23 401.338 56.7139 361.491 59.7789C321.643 62.8439 346.165 102.143 339.268 111.23C332.371 120.317 319.344 111.339 300.953 111.23C282.562 111.121 274.133 152.501 308.616 160.93C343.099 169.359 316.279 178.555 298.654 174.723C281.029 170.892 264.937 199.244 307.853 219.17C336.369 232.408 372.62 236.064 402.093 223.595C412.131 219.348 444.027 200.602 430.215 186.1C422.742 178.253 397.652 183.448 407.843 165.562C410.417 161.044 414.842 157.877 419.438 155.445C429.494 150.123 443.135 147.737 441.07 133.498C437.64 109.836 402.109 113.605 386.011 116.486L382.181 111.23Z" stroke="#F2B468" stroke-width="0.9816" stroke-miterlimit="10"/>
<path d="M366.723 87.9448V260.883" stroke="#37424F" stroke-width="1.614" stroke-miterlimit="10"/>
<path d="M464.443 195.451H346.743C343.976 195.451 341.732 193.208 341.732 190.44V127.265C341.732 124.497 343.975 122.254 346.743 122.254H464.443C467.211 122.254 469.454 124.498 469.454 127.265V190.44C469.454 193.208 467.21 195.451 464.443 195.451Z" fill="#4DC7B8"/>
<path d="M374.017 167.832H353.637C351.044 167.832 348.943 165.73 348.943 163.138V154.568C348.943 151.975 351.045 149.873 353.637 149.873H374.017C376.61 149.873 378.711 151.975 378.711 154.568V163.138C378.711 165.73 376.609 167.832 374.017 167.832Z" fill="#F2C998"/>
<path d="M355.336 149.874V167.832" stroke="#F2E4D3" stroke-width="0.3423" stroke-miterlimit="10"/>
<path d="M371.374 149.874V167.832" stroke="#F2E4D3" stroke-width="0.3423" stroke-miterlimit="10"/>
<path d="M348.942 155.044H378.711" stroke="#F2E4D3" stroke-width="0.3423" stroke-miterlimit="10"/>
<path d="M348.942 162.676H378.711" stroke="#F2E4D3" stroke-width="0.3423" stroke-miterlimit="10"/>
<path d="M362.512 174.382V182.292H361.554V175.386H361.508L359.576 176.668V175.695L361.554 174.382H362.512ZM364.787 182.292V181.597L367.398 178.739C367.705 178.404 367.957 178.113 368.156 177.866C368.354 177.616 368.501 177.382 368.596 177.163C368.694 176.941 368.743 176.71 368.743 176.468C368.743 176.189 368.676 175.949 368.542 175.745C368.411 175.542 368.23 175.385 368.001 175.274C367.772 175.163 367.514 175.108 367.229 175.108C366.925 175.108 366.659 175.171 366.433 175.297C366.209 175.421 366.035 175.595 365.911 175.819C365.79 176.043 365.73 176.305 365.73 176.607H364.818C364.818 176.143 364.925 175.736 365.139 175.386C365.353 175.036 365.644 174.763 366.012 174.567C366.383 174.371 366.798 174.273 367.259 174.273C367.723 174.273 368.134 174.371 368.492 174.567C368.85 174.763 369.13 175.027 369.334 175.359C369.537 175.691 369.639 176.061 369.639 176.468C369.639 176.758 369.586 177.043 369.48 177.321C369.377 177.597 369.197 177.904 368.94 178.244C368.685 178.582 368.331 178.994 367.877 179.48L366.101 181.381V181.443H369.778V182.292H364.787ZM374.046 182.401C373.536 182.401 373.082 182.313 372.683 182.138C372.286 181.963 371.971 181.72 371.736 181.408C371.505 181.094 371.378 180.729 371.358 180.315H372.331C372.352 180.57 372.439 180.79 372.594 180.975C372.748 181.158 372.95 181.3 373.2 181.4C373.45 181.501 373.727 181.551 374.031 181.551C374.371 181.551 374.672 181.492 374.935 181.373C375.197 181.255 375.403 181.09 375.553 180.879C375.702 180.668 375.777 180.423 375.777 180.145C375.777 179.854 375.705 179.598 375.56 179.376C375.416 179.152 375.205 178.977 374.927 178.851C374.649 178.725 374.309 178.662 373.907 178.662H373.274V177.812H373.907C374.221 177.812 374.497 177.755 374.734 177.642C374.973 177.528 375.16 177.369 375.294 177.163C375.43 176.957 375.499 176.715 375.499 176.437C375.499 176.169 375.439 175.936 375.321 175.737C375.202 175.539 375.035 175.385 374.819 175.274C374.605 175.163 374.353 175.108 374.062 175.108C373.789 175.108 373.531 175.158 373.289 175.258C373.05 175.356 372.854 175.499 372.702 175.687C372.55 175.873 372.468 176.097 372.455 176.359H371.528C371.543 175.945 371.668 175.582 371.902 175.27C372.137 174.956 372.443 174.711 372.822 174.536C373.203 174.361 373.621 174.273 374.077 174.273C374.566 174.273 374.986 174.373 375.336 174.571C375.687 174.767 375.956 175.025 376.144 175.347C376.332 175.669 376.426 176.017 376.426 176.39C376.426 176.836 376.308 177.216 376.074 177.53C375.842 177.844 375.527 178.062 375.128 178.183V178.244C375.627 178.327 376.017 178.539 376.298 178.882C376.579 179.222 376.719 179.643 376.719 180.145C376.719 180.575 376.602 180.961 376.368 181.304C376.136 181.644 375.819 181.911 375.417 182.107C375.016 182.303 374.559 182.401 374.046 182.401ZM381.173 180.67V179.882L384.649 174.382H385.221V175.602H384.835L382.208 179.759V179.82H386.89V180.67H381.173ZM384.897 182.292V180.431V180.064V174.382H385.808V182.292H384.897ZM390.809 182.401C390.356 182.401 389.948 182.311 389.585 182.13C389.222 181.95 388.931 181.703 388.712 181.389C388.493 181.074 388.373 180.716 388.353 180.315H389.28C389.316 180.673 389.478 180.969 389.766 181.203C390.057 181.435 390.405 181.551 390.809 181.551C391.134 181.551 391.422 181.475 391.675 181.323C391.93 181.171 392.129 180.962 392.273 180.697C392.42 180.429 392.494 180.127 392.494 179.789C392.494 179.444 392.418 179.137 392.266 178.866C392.116 178.593 391.91 178.378 391.648 178.221C391.385 178.064 391.085 177.984 390.748 177.982C390.506 177.979 390.257 178.016 390.002 178.094C389.747 178.168 389.537 178.265 389.373 178.383L388.476 178.275L388.955 174.382H393.065V175.231H389.759L389.481 177.565H389.527C389.689 177.436 389.893 177.329 390.137 177.244C390.382 177.159 390.637 177.116 390.902 177.116C391.386 177.116 391.818 177.232 392.196 177.464C392.577 177.693 392.876 178.007 393.092 178.407C393.311 178.806 393.421 179.262 393.421 179.774C393.421 180.279 393.307 180.729 393.081 181.126C392.857 181.52 392.548 181.832 392.154 182.061C391.76 182.287 391.312 182.401 390.809 182.401ZM397.582 182.401C397.257 182.395 396.933 182.334 396.608 182.215C396.284 182.097 395.988 181.897 395.72 181.617C395.452 181.333 395.237 180.951 395.075 180.469C394.913 179.985 394.831 179.377 394.831 178.646C394.831 177.946 394.897 177.325 395.028 176.784C395.16 176.241 395.35 175.784 395.6 175.413C395.85 175.04 396.151 174.756 396.504 174.563C396.859 174.37 397.26 174.273 397.705 174.273C398.148 174.273 398.542 174.362 398.887 174.54C399.235 174.715 399.518 174.96 399.737 175.274C399.956 175.588 400.098 175.95 400.162 176.359H399.22C399.132 176.004 398.962 175.709 398.71 175.475C398.457 175.24 398.123 175.123 397.705 175.123C397.092 175.123 396.61 175.39 396.257 175.923C395.907 176.456 395.73 177.204 395.728 178.167H395.789C395.934 177.948 396.105 177.762 396.303 177.607C396.504 177.45 396.725 177.329 396.968 177.244C397.21 177.159 397.466 177.116 397.736 177.116C398.189 177.116 398.604 177.23 398.98 177.456C399.356 177.68 399.657 177.991 399.884 178.387C400.111 178.781 400.224 179.233 400.224 179.743C400.224 180.232 400.114 180.68 399.895 181.087C399.677 181.492 399.369 181.814 398.972 182.053C398.578 182.29 398.115 182.406 397.582 182.401ZM397.582 181.551C397.906 181.551 398.197 181.47 398.455 181.307C398.715 181.145 398.92 180.928 399.069 180.655C399.221 180.382 399.297 180.078 399.297 179.743C399.297 179.416 399.223 179.119 399.077 178.851C398.932 178.58 398.733 178.365 398.478 178.206C398.226 178.046 397.937 177.966 397.613 177.966C397.368 177.966 397.14 178.015 396.929 178.113C396.718 178.208 396.532 178.34 396.373 178.507C396.216 178.674 396.092 178.866 396.002 179.083C395.912 179.296 395.867 179.522 395.867 179.759C395.867 180.073 395.94 180.366 396.087 180.639C396.236 180.912 396.44 181.132 396.697 181.3C396.957 181.467 397.252 181.551 397.582 181.551ZM405.049 182.292L408.588 175.293V175.231H404.509V174.382H409.576V175.278L406.054 182.292H405.049ZM413.391 182.401C412.86 182.401 412.392 182.307 411.985 182.119C411.581 181.928 411.265 181.667 411.038 181.335C410.812 181 410.7 180.619 410.702 180.191C410.7 179.856 410.765 179.547 410.899 179.264C411.033 178.978 411.216 178.74 411.448 178.55C411.682 178.356 411.944 178.234 412.232 178.183V178.136C411.853 178.038 411.552 177.826 411.328 177.499C411.104 177.169 410.993 176.795 410.996 176.375C410.993 175.973 411.095 175.614 411.301 175.297C411.507 174.98 411.79 174.731 412.151 174.548C412.514 174.365 412.927 174.273 413.391 174.273C413.849 174.273 414.259 174.365 414.619 174.548C414.98 174.731 415.263 174.98 415.469 175.297C415.678 175.614 415.783 175.973 415.786 176.375C415.783 176.795 415.669 177.169 415.442 177.499C415.218 177.826 414.92 178.038 414.55 178.136V178.183C414.836 178.234 415.093 178.356 415.322 178.55C415.551 178.74 415.734 178.978 415.871 179.264C416.007 179.547 416.077 179.856 416.079 180.191C416.077 180.619 415.961 181 415.732 181.335C415.505 181.667 415.19 181.928 414.785 182.119C414.384 182.307 413.919 182.401 413.391 182.401ZM413.391 181.551C413.749 181.551 414.058 181.493 414.318 181.377C414.578 181.261 414.779 181.098 414.92 180.886C415.062 180.675 415.134 180.428 415.137 180.145C415.134 179.846 415.057 179.582 414.905 179.353C414.753 179.124 414.546 178.944 414.283 178.812C414.023 178.681 413.726 178.615 413.391 178.615C413.054 178.615 412.752 178.681 412.487 178.812C412.224 178.944 412.017 179.124 411.865 179.353C411.716 179.582 411.642 179.846 411.645 180.145C411.642 180.428 411.711 180.675 411.85 180.886C411.991 181.098 412.193 181.261 412.456 181.377C412.719 181.493 413.03 181.551 413.391 181.551ZM413.391 177.796C413.674 177.796 413.925 177.74 414.144 177.626C414.366 177.513 414.539 177.355 414.666 177.151C414.792 176.948 414.856 176.71 414.859 176.437C414.856 176.169 414.793 175.936 414.669 175.737C414.546 175.537 414.375 175.382 414.156 175.274C413.937 175.163 413.682 175.108 413.391 175.108C413.095 175.108 412.836 175.163 412.614 175.274C412.393 175.382 412.222 175.537 412.101 175.737C411.98 175.936 411.92 176.169 411.923 176.437C411.92 176.71 411.981 176.948 412.105 177.151C412.231 177.355 412.405 177.513 412.626 177.626C412.847 177.74 413.102 177.796 413.391 177.796ZM420.078 174.273C420.403 174.276 420.727 174.338 421.052 174.459C421.376 174.58 421.672 174.781 421.94 175.061C422.208 175.34 422.423 175.719 422.585 176.201C422.747 176.683 422.828 177.286 422.828 178.013C422.828 178.716 422.761 179.34 422.628 179.886C422.496 180.429 422.306 180.888 422.056 181.261C421.809 181.635 421.507 181.918 421.152 182.111C420.799 182.304 420.4 182.401 419.955 182.401C419.512 182.401 419.116 182.313 418.769 182.138C418.424 181.96 418.14 181.714 417.919 181.4C417.7 181.083 417.56 180.716 417.498 180.299H418.44C418.525 180.662 418.694 180.962 418.946 181.199C419.201 181.434 419.537 181.551 419.955 181.551C420.565 181.551 421.046 181.284 421.399 180.751C421.755 180.218 421.932 179.465 421.932 178.492H421.87C421.726 178.708 421.555 178.895 421.357 179.052C421.158 179.209 420.938 179.33 420.696 179.415C420.454 179.5 420.197 179.542 419.924 179.542C419.47 179.542 419.055 179.43 418.676 179.206C418.3 178.98 417.999 178.669 417.772 178.275C417.548 177.879 417.436 177.425 417.436 176.916C417.436 176.431 417.544 175.989 417.761 175.587C417.979 175.183 418.286 174.861 418.68 174.621C419.076 174.382 419.543 174.266 420.078 174.273ZM420.078 175.123C419.754 175.123 419.461 175.204 419.201 175.367C418.944 175.526 418.739 175.743 418.587 176.016C418.438 176.286 418.363 176.586 418.363 176.916C418.363 177.245 418.435 177.545 418.579 177.816C418.726 178.083 418.926 178.297 419.178 178.457C419.433 178.614 419.723 178.692 420.047 178.692C420.292 178.692 420.52 178.645 420.731 178.55C420.942 178.452 421.126 178.319 421.283 178.152C421.443 177.982 421.568 177.79 421.658 177.576C421.748 177.36 421.793 177.134 421.793 176.9C421.793 176.591 421.719 176.301 421.569 176.031C421.422 175.761 421.219 175.542 420.959 175.374C420.701 175.207 420.408 175.123 420.078 175.123ZM429.987 182.401C429.405 182.401 428.909 182.242 428.5 181.926C428.09 181.606 427.778 181.144 427.561 180.539C427.345 179.931 427.237 179.197 427.237 178.337C427.237 177.482 427.345 176.752 427.561 176.147C427.78 175.539 428.094 175.076 428.504 174.756C428.916 174.434 429.41 174.273 429.987 174.273C430.564 174.273 431.057 174.434 431.466 174.756C431.878 175.076 432.193 175.539 432.409 176.147C432.628 176.752 432.737 177.482 432.737 178.337C432.737 179.197 432.629 179.931 432.413 180.539C432.196 181.144 431.884 181.606 431.474 181.926C431.065 182.242 430.569 182.401 429.987 182.401ZM429.987 181.551C430.564 181.551 431.012 181.273 431.331 180.716C431.651 180.16 431.81 179.367 431.81 178.337C431.81 177.652 431.737 177.069 431.59 176.587C431.446 176.106 431.237 175.739 430.964 175.486C430.694 175.234 430.368 175.108 429.987 175.108C429.415 175.108 428.969 175.39 428.647 175.954C428.325 176.515 428.164 177.31 428.164 178.337C428.164 179.022 428.236 179.604 428.38 180.083C428.524 180.562 428.732 180.926 429.002 181.176C429.275 181.426 429.603 181.551 429.987 181.551ZM436.785 182.401C436.203 182.401 435.708 182.242 435.298 181.926C434.889 181.606 434.576 181.144 434.36 180.539C434.143 179.931 434.035 179.197 434.035 178.337C434.035 177.482 434.143 176.752 434.36 176.147C434.578 175.539 434.893 175.076 435.302 174.756C435.714 174.434 436.209 174.273 436.785 174.273C437.362 174.273 437.855 174.434 438.265 174.756C438.677 175.076 438.991 175.539 439.207 176.147C439.426 176.752 439.536 177.482 439.536 178.337C439.536 179.197 439.427 179.931 439.211 180.539C438.995 181.144 438.682 181.606 438.273 181.926C437.863 182.242 437.367 182.401 436.785 182.401ZM436.785 181.551C437.362 181.551 437.81 181.273 438.13 180.716C438.449 180.16 438.609 179.367 438.609 178.337C438.609 177.652 438.535 177.069 438.388 176.587C438.244 176.106 438.036 175.739 437.763 175.486C437.492 175.234 437.166 175.108 436.785 175.108C436.214 175.108 435.767 175.39 435.445 175.954C435.123 176.515 434.962 177.31 434.962 178.337C434.962 179.022 435.034 179.604 435.178 180.083C435.323 180.562 435.53 180.926 435.8 181.176C436.073 181.426 436.402 181.551 436.785 181.551ZM443.584 182.401C443.002 182.401 442.506 182.242 442.097 181.926C441.687 181.606 441.374 181.144 441.158 180.539C440.942 179.931 440.833 179.197 440.833 178.337C440.833 177.482 440.942 176.752 441.158 176.147C441.377 175.539 441.691 175.076 442.1 174.756C442.512 174.434 443.007 174.273 443.584 174.273C444.161 174.273 444.654 174.434 445.063 174.756C445.475 175.076 445.789 175.539 446.006 176.147C446.225 176.752 446.334 177.482 446.334 178.337C446.334 179.197 446.226 179.931 446.01 180.539C445.793 181.144 445.48 181.606 445.071 181.926C444.661 182.242 444.166 182.401 443.584 182.401ZM443.584 181.551C444.161 181.551 444.609 181.273 444.928 180.716C445.247 180.16 445.407 179.367 445.407 178.337C445.407 177.652 445.334 177.069 445.187 176.587C445.043 176.106 444.834 175.739 444.561 175.486C444.291 175.234 443.965 175.108 443.584 175.108C443.012 175.108 442.565 175.39 442.243 175.954C441.921 176.515 441.761 177.31 441.761 178.337C441.761 179.022 441.833 179.604 441.977 180.083C442.121 180.562 442.328 180.926 442.599 181.176C442.872 181.426 443.2 181.551 443.584 181.551ZM453.642 174.382V182.292H452.684V175.386H452.638L450.707 176.668V175.695L452.684 174.382H453.642ZM455.917 182.292V181.597L458.529 178.739C458.835 178.404 459.087 178.113 459.286 177.866C459.484 177.616 459.631 177.382 459.726 177.163C459.824 176.941 459.873 176.71 459.873 176.468C459.873 176.189 459.806 175.949 459.672 175.745C459.541 175.542 459.36 175.385 459.131 175.274C458.902 175.163 458.644 175.108 458.359 175.108C458.055 175.108 457.79 175.171 457.563 175.297C457.339 175.421 457.165 175.595 457.041 175.819C456.92 176.043 456.86 176.305 456.86 176.607H455.948C455.948 176.143 456.055 175.736 456.269 175.386C456.483 175.036 456.774 174.763 457.142 174.567C457.513 174.371 457.929 174.273 458.39 174.273C458.853 174.273 459.264 174.371 459.622 174.567C459.98 174.763 460.26 175.027 460.464 175.359C460.667 175.691 460.769 176.061 460.769 176.468C460.769 176.758 460.716 177.043 460.611 177.321C460.508 177.597 460.327 177.904 460.07 178.244C459.815 178.582 459.461 178.994 459.008 179.48L457.231 181.381V181.443H460.908V182.292H455.917ZM465.176 182.401C464.666 182.401 464.212 182.313 463.813 182.138C463.416 181.963 463.101 181.72 462.866 181.408C462.635 181.094 462.508 180.729 462.488 180.315H463.461C463.482 180.57 463.569 180.79 463.724 180.975C463.878 181.158 464.081 181.3 464.33 181.4C464.58 181.501 464.857 181.551 465.161 181.551C465.501 181.551 465.802 181.492 466.065 181.373C466.327 181.255 466.533 181.09 466.683 180.879C466.832 180.668 466.907 180.423 466.907 180.145C466.907 179.854 466.835 179.598 466.691 179.376C466.546 179.152 466.335 178.977 466.057 178.851C465.779 178.725 465.439 178.662 465.037 178.662H464.404V177.812H465.037C465.351 177.812 465.627 177.755 465.864 177.642C466.103 177.528 466.29 177.369 466.424 177.163C466.56 176.957 466.629 176.715 466.629 176.437C466.629 176.169 466.569 175.936 466.451 175.737C466.333 175.539 466.165 175.385 465.949 175.274C465.735 175.163 465.483 175.108 465.192 175.108C464.919 175.108 464.661 175.158 464.419 175.258C464.18 175.356 463.984 175.499 463.832 175.687C463.68 175.873 463.598 176.097 463.585 176.359H462.658C462.673 175.945 462.798 175.582 463.033 175.27C463.267 174.956 463.573 174.711 463.952 174.536C464.333 174.361 464.751 174.273 465.207 174.273C465.696 174.273 466.116 174.373 466.466 174.571C466.817 174.767 467.086 175.025 467.274 175.347C467.462 175.669 467.556 176.017 467.556 176.39C467.556 176.836 467.439 177.216 467.204 177.53C466.972 177.844 466.657 178.062 466.258 178.183V178.244C466.757 178.327 467.148 178.539 467.428 178.882C467.709 179.222 467.849 179.643 467.849 180.145C467.849 180.575 467.732 180.961 467.498 181.304C467.266 181.644 466.949 181.911 466.548 182.107C466.146 182.303 465.689 182.401 465.176 182.401Z" fill="white"/>
<path d="M425.017 144.237V133.529H428.761C429.507 133.529 430.122 133.658 430.607 133.916C431.091 134.171 431.452 134.514 431.689 134.946C431.926 135.375 432.045 135.851 432.045 136.374C432.045 136.834 431.963 137.214 431.799 137.513C431.638 137.813 431.426 138.05 431.161 138.225C430.899 138.399 430.615 138.528 430.309 138.611V138.716C430.636 138.737 430.966 138.852 431.297 139.061C431.628 139.27 431.905 139.57 432.128 139.96C432.351 140.351 432.463 140.828 432.463 141.393C432.463 141.93 432.341 142.413 432.097 142.841C431.853 143.27 431.468 143.61 430.941 143.861C430.415 144.112 429.73 144.237 428.886 144.237H425.017ZM426.314 143.087H428.886C429.733 143.087 430.335 142.923 430.69 142.596C431.049 142.264 431.229 141.864 431.229 141.393C431.229 141.03 431.136 140.696 430.952 140.389C430.767 140.079 430.504 139.831 430.162 139.647C429.821 139.458 429.416 139.364 428.949 139.364H426.314V143.087ZM426.314 138.235H428.719C429.11 138.235 429.462 138.158 429.775 138.005C430.093 137.852 430.343 137.635 430.528 137.357C430.716 137.078 430.811 136.75 430.811 136.374C430.811 135.903 430.647 135.504 430.319 135.176C429.991 134.845 429.472 134.68 428.761 134.68H426.314V138.235ZM435.033 144.237H433.673L437.605 133.529H438.944L442.875 144.237H441.516L438.316 135.223H438.232L435.033 144.237ZM435.535 140.054H441.014V141.205H435.535V140.054ZM453.034 133.529V144.237H451.78L445.945 135.83H445.84V144.237H444.543V133.529H445.798L451.654 141.958H451.759V133.529H453.034ZM455.629 144.237V133.529H456.926V138.841H457.051L461.861 133.529H463.555L459.059 138.36L463.555 144.237H461.987L458.264 139.26L456.926 140.766V144.237H455.629Z" fill="white"/>
<path d="M451.956 152.853H389.313V156.561H451.956V152.853Z" stroke="#3D9E92" stroke-width="0.3423" stroke-miterlimit="10"/>
<path d="M427.95 160.533H389.313V164.241H427.95V160.533Z" stroke="#3D9E92" stroke-width="0.2688" stroke-miterlimit="10"/>
<path d="M413.96 133.64H352.087V141.926H413.96V133.64Z" fill="#3D9E92"/>
<path d="M96.0322 269.669H63.3862V314.871H96.0322V269.669Z" fill="#F2C38A"/>
<path d="M128.678 269.669H96.0322V314.871H128.678V269.669Z" fill="#F2B468"/>
<path d="M83.5232 269.669H76.2002V314.871H83.5232V269.669Z" fill="#F2B468"/>
<path d="M116.474 269.669H109.151V314.871H116.474V269.669Z" fill="#F2C38A"/>
<path d="M142.027 239.287H109.336V314.87H142.027V239.287Z" fill="#DD4C65"/>
<path d="M170.917 239.287H138.226V314.87H170.917V239.287Z" fill="#DD314E"/>
<path d="M46.8602 283.46H20.6802V316.835H46.8602V283.46Z" fill="#4DC7B8"/>
<path d="M69.9949 283.46H43.8149V316.835H69.9949V283.46Z" fill="#2EA394"/>
<path d="M347.799 323.214H220.682C214.583 323.214 209.639 318.27 209.639 312.171V65.2979C209.639 59.1989 214.583 54.2549 220.682 54.2549H347.8C353.899 54.2549 358.843 59.1989 358.843 65.2979V312.171C358.842 318.27 353.898 323.214 347.799 323.214Z" fill="#131A36"/>
<path d="M213.074 312.112V65.3568C213.074 64.6468 213.65 64.0708 214.36 64.0708H354.12C354.83 64.0708 355.406 64.6468 355.406 65.3568V312.112C355.406 312.822 354.83 313.398 354.12 313.398H214.36C213.65 313.398 213.074 312.823 213.074 312.112Z" fill="white"/>
<path d="M352.463 147.998H284.732C284.19 147.998 283.75 147.559 283.75 147.016C283.75 146.474 284.189 146.034 284.732 146.034H352.463C353.005 146.034 353.445 146.473 353.445 147.016C353.444 147.559 353.005 147.998 352.463 147.998Z" fill="#BAD8EB"/>
<path d="M336.874 153.888H284.615C284.138 153.888 283.75 153.501 283.75 153.024V152.789C283.75 152.312 284.138 151.925 284.615 151.925H336.874C337.351 151.925 337.738 152.312 337.738 152.789V153.024C337.738 153.501 337.351 153.888 336.874 153.888Z" fill="#BAD8EB"/>
<path d="M352.463 163.704H284.732C284.19 163.704 283.75 163.265 283.75 162.722C283.75 162.18 284.189 161.74 284.732 161.74H352.463C353.005 161.74 353.445 162.179 353.445 162.722C353.444 163.264 353.005 163.704 352.463 163.704Z" fill="#BAD8EB"/>
<path d="M336.874 169.594H284.615C284.138 169.594 283.75 169.207 283.75 168.73V168.495C283.75 168.018 284.138 167.631 284.615 167.631H336.874C337.351 167.631 337.738 168.018 337.738 168.495V168.73C337.738 169.207 337.351 169.594 336.874 169.594Z" fill="#BAD8EB"/>
<path d="M344.118 82.2308H220.436C219.081 82.2308 217.982 81.1317 217.982 79.7767C217.982 78.4217 219.081 77.3228 220.436 77.3228H344.118C345.473 77.3228 346.572 78.4217 346.572 79.7767C346.572 81.1317 345.473 82.2308 344.118 82.2308Z" stroke="#BAD8EB" stroke-width="0.9816" stroke-miterlimit="10"/>
<path d="M344.118 93.0286H220.436C219.081 93.0286 217.982 91.9296 217.982 90.5746C217.982 89.2196 219.081 88.1206 220.436 88.1206H344.118C345.473 88.1206 346.572 89.2196 346.572 90.5746C346.572 91.9296 345.473 93.0286 344.118 93.0286Z" fill="#BAD8EB"/>
<path d="M351.48 183.336H217.982V233.398H351.48V183.336Z" stroke="#BAD8EB" stroke-width="0.9816" stroke-miterlimit="10"/>
<path d="M284.24 188.735H223.381C222.839 188.735 222.399 188.296 222.399 187.753C222.399 187.211 222.838 186.771 223.381 186.771H284.24C284.782 186.771 285.222 187.21 285.222 187.753C285.222 188.295 284.783 188.735 284.24 188.735Z" fill="#BAD8EB"/>
<path d="M264.295 195.115H223.695C223.251 195.115 222.89 194.755 222.89 194.31V193.956C222.89 193.512 223.25 193.151 223.695 193.151H264.295C264.739 193.151 265.1 193.511 265.1 193.956V194.31C265.1 194.755 264.74 195.115 264.295 195.115Z" fill="#BAD8EB"/>
<path d="M284.24 203.459H223.381C222.839 203.459 222.399 203.02 222.399 202.477C222.399 201.935 222.838 201.495 223.381 201.495H284.24C284.782 201.495 285.222 201.934 285.222 202.477C285.222 203.019 284.783 203.459 284.24 203.459Z" fill="#BAD8EB"/>
<path d="M264.295 209.839H223.695C223.251 209.839 222.89 209.479 222.89 209.034V208.68C222.89 208.236 223.25 207.875 223.695 207.875H264.295C264.739 207.875 265.1 208.235 265.1 208.68V209.034C265.1 209.479 264.74 209.839 264.295 209.839Z" fill="#BAD8EB"/>
<path d="M284.24 219.164H223.381C222.839 219.164 222.399 218.725 222.399 218.182C222.399 217.64 222.838 217.2 223.381 217.2H284.24C284.782 217.2 285.222 217.64 285.222 218.182C285.222 218.725 284.783 219.164 284.24 219.164Z" fill="#BAD8EB"/>
<path d="M264.295 225.545H223.695C223.251 225.545 222.89 225.185 222.89 224.74V224.386C222.89 223.942 223.25 223.581 223.695 223.581H264.295C264.739 223.581 265.1 223.941 265.1 224.386V224.74C265.1 225.185 264.74 225.545 264.295 225.545Z" fill="#BAD8EB"/>
<path d="M315.16 188.244H296.51V202.968H315.16V188.244Z" fill="#DD4C65"/>
<path d="M315.161 215.729H296.511C295.427 215.729 294.548 214.85 294.548 213.766C294.548 212.682 295.427 211.803 296.511 211.803H315.161C316.245 211.803 317.124 212.682 317.124 213.766C317.124 214.85 316.245 215.729 315.161 215.729Z" fill="#BAD8EB"/>
<path d="M343.628 188.244H324.978V202.968H343.628V188.244Z" fill="#F2B468"/>
<path d="M343.628 215.729H324.978C323.894 215.729 323.015 214.85 323.015 213.766C323.015 212.682 323.894 211.803 324.978 211.803H343.628C344.712 211.803 345.591 212.682 345.591 213.766C345.592 214.85 344.713 215.729 343.628 215.729Z" fill="#BAD8EB"/>
<path d="M244.904 293.497H222.962C222.651 293.497 222.399 293.245 222.399 292.934V292.301C222.399 291.99 222.651 291.738 222.962 291.738H244.904C245.215 291.738 245.467 291.99 245.467 292.301V292.934C245.467 293.245 245.215 293.497 244.904 293.497Z" fill="#BAD8EB"/>
<path d="M237.618 299.215H223.042C222.787 299.215 222.58 299.008 222.58 298.753V297.917C222.58 297.662 222.787 297.455 223.042 297.455H237.618C237.873 297.455 238.08 297.662 238.08 297.917V298.753C238.079 299.008 237.873 299.215 237.618 299.215Z" fill="#BAD8EB"/>
<path d="M292.022 293.497H270.08C269.769 293.497 269.517 293.245 269.517 292.934V292.301C269.517 291.99 269.769 291.738 270.08 291.738H292.022C292.333 291.738 292.585 291.99 292.585 292.301V292.934C292.585 293.245 292.333 293.497 292.022 293.497Z" fill="#BAD8EB"/>
<path d="M284.735 299.215H270.159C269.904 299.215 269.697 299.008 269.697 298.753V297.917C269.697 297.662 269.904 297.455 270.159 297.455H284.735C284.99 297.455 285.196 297.662 285.196 297.917V298.753C285.196 299.008 284.989 299.215 284.735 299.215Z" fill="#BAD8EB"/>
<path d="M339.138 293.497H317.197C316.886 293.497 316.634 293.245 316.634 292.934V292.301C316.634 291.99 316.886 291.738 317.197 291.738H339.138C339.449 291.738 339.701 291.99 339.701 292.301V292.934C339.701 293.245 339.449 293.497 339.138 293.497Z" fill="#BAD8EB"/>
<path d="M331.852 299.215H317.275C317.02 299.215 316.813 299.008 316.813 298.753V297.917C316.813 297.662 317.02 297.455 317.275 297.455H331.852C332.107 297.455 332.313 297.662 332.313 297.917V298.753C332.312 299.008 332.106 299.215 331.852 299.215Z" fill="#BAD8EB"/>
<path d="M253.29 283.46H220.957C219.314 283.46 217.982 282.128 217.982 280.485V248.152C217.982 246.509 219.314 245.177 220.957 245.177H253.29C254.933 245.177 256.265 246.509 256.265 248.152V280.485C256.265 282.128 254.933 283.46 253.29 283.46Z" stroke="#DD4C65" stroke-width="0.7976" stroke-miterlimit="10"/>
<path d="M244.067 267.509H230.18C229.83 267.509 229.547 267.225 229.547 266.875V263.756C229.547 263.406 229.831 263.123 230.18 263.123H244.066C244.416 263.123 244.7 263.407 244.7 263.756V266.875C244.7 267.225 244.417 267.509 244.067 267.509Z" stroke="#DD4C65" stroke-width="0.7976" stroke-miterlimit="10"/>
<path d="M303.537 283.46H271.204C269.561 283.46 268.229 282.128 268.229 280.485V248.152C268.229 246.509 269.561 245.177 271.204 245.177H303.537C305.18 245.177 306.512 246.509 306.512 248.152V280.485C306.511 282.128 305.18 283.46 303.537 283.46Z" stroke="#F2B468" stroke-width="0.7976" stroke-miterlimit="10"/>
<path d="M294.313 267.509H280.427C280.077 267.509 279.794 267.225 279.794 266.875V263.756C279.794 263.406 280.078 263.123 280.427 263.123H294.313C294.663 263.123 294.947 263.407 294.947 263.756V266.875C294.946 267.225 294.662 267.509 294.313 267.509Z" stroke="#F2B468" stroke-width="0.7976" stroke-miterlimit="10"/>
<path d="M349.794 283.46H317.461C315.818 283.46 314.486 282.128 314.486 280.485V248.152C314.486 246.509 315.818 245.177 317.461 245.177H349.794C351.437 245.177 352.769 246.509 352.769 248.152V280.485C352.769 282.128 351.437 283.46 349.794 283.46Z" stroke="#4DC7B8" stroke-width="0.7976" stroke-miterlimit="10"/>
<path d="M340.57 267.509H326.684C326.334 267.509 326.05 267.225 326.05 266.875V263.756C326.05 263.406 326.334 263.123 326.684 263.123H340.57C340.92 263.123 341.204 263.407 341.204 263.756V266.875C341.204 267.225 340.92 267.509 340.57 267.509Z" stroke="#4DC7B8" stroke-width="0.7976" stroke-miterlimit="10"/>
<path d="M307.065 109.65H301.502V112.874C302.213 112.541 302.97 112.375 303.772 112.375C304.62 112.375 305.377 112.572 306.043 112.965C306.709 113.359 307.231 113.934 307.61 114.691C307.988 115.448 308.177 116.341 308.177 117.37C308.177 118.445 307.928 119.399 307.428 120.231C306.944 121.049 306.24 121.684 305.316 122.138C304.408 122.593 303.356 122.82 302.16 122.82C300.087 122.82 298.384 122.048 297.052 120.504L299.05 118.642C299.882 119.626 300.874 120.118 302.024 120.118C302.811 120.118 303.417 119.883 303.841 119.414C304.28 118.944 304.499 118.271 304.499 117.393C304.499 115.682 303.78 114.827 302.342 114.827C302.039 114.827 301.744 114.873 301.456 114.963C301.169 115.039 300.851 115.175 300.503 115.372H298.073V107.085H307.473L307.065 109.65ZM315.582 106.767C317.459 106.767 318.89 107.455 319.874 108.833C320.873 110.21 321.372 112.193 321.372 114.782C321.372 117.355 320.873 119.338 319.874 120.731C318.89 122.123 317.459 122.82 315.582 122.82C313.705 122.82 312.267 122.123 311.268 120.731C310.284 119.338 309.792 117.355 309.792 114.782C309.792 112.193 310.284 110.21 311.268 108.833C312.267 107.455 313.705 106.767 315.582 106.767ZM315.582 109.423C315.068 109.423 314.659 109.59 314.356 109.923C314.054 110.256 313.826 110.808 313.675 111.58C313.539 112.352 313.471 113.419 313.471 114.782C313.471 116.144 313.539 117.219 313.675 118.006C313.826 118.778 314.054 119.33 314.356 119.663C314.659 119.997 315.068 120.163 315.582 120.163C316.097 120.163 316.506 120.004 316.808 119.686C317.111 119.353 317.331 118.801 317.467 118.029C317.618 117.242 317.694 116.159 317.694 114.782C317.694 113.404 317.618 112.33 317.467 111.558C317.331 110.77 317.111 110.218 316.808 109.9C316.506 109.582 316.097 109.423 315.582 109.423ZM336.153 106.085L338.355 107.493L327.843 123.342L325.64 121.934L336.153 106.085ZM326.912 106.767C327.669 106.767 328.35 106.933 328.955 107.266C329.576 107.599 330.06 108.076 330.408 108.697C330.772 109.317 330.953 110.036 330.953 110.854C330.953 111.671 330.772 112.39 330.408 113.011C330.06 113.631 329.576 114.108 328.955 114.441C328.35 114.774 327.669 114.941 326.912 114.941C326.155 114.941 325.466 114.774 324.845 114.441C324.24 114.093 323.756 113.616 323.392 113.011C323.044 112.39 322.87 111.671 322.87 110.854C322.87 110.036 323.044 109.325 323.392 108.719C323.756 108.099 324.24 107.622 324.845 107.289C325.466 106.941 326.155 106.767 326.912 106.767ZM326.912 108.924C325.928 108.924 325.436 109.567 325.436 110.854C325.436 111.414 325.542 111.875 325.754 112.239C325.981 112.602 326.367 112.784 326.912 112.784C327.88 112.784 328.365 112.14 328.365 110.854C328.365 109.567 327.88 108.924 326.912 108.924ZM337.016 114.668C337.773 114.668 338.454 114.835 339.059 115.168C339.68 115.501 340.164 115.978 340.512 116.598C340.876 117.204 341.057 117.915 341.057 118.733C341.057 119.55 340.876 120.269 340.512 120.89C340.164 121.51 339.68 121.987 339.059 122.32C338.454 122.653 337.773 122.82 337.016 122.82C336.259 122.82 335.57 122.653 334.949 122.32C334.329 121.987 333.837 121.51 333.474 120.89C333.125 120.269 332.951 119.55 332.951 118.733C332.951 117.915 333.125 117.204 333.474 116.598C333.837 115.978 334.329 115.501 334.949 115.168C335.57 114.835 336.259 114.668 337.016 114.668ZM337.016 116.825C336.032 116.825 335.54 117.461 335.54 118.733C335.54 119.293 335.646 119.762 335.858 120.14C336.085 120.504 336.471 120.685 337.016 120.685C337.984 120.685 338.469 120.034 338.469 118.733C338.469 117.461 337.984 116.825 337.016 116.825Z" fill="#DD4C65"/>
<path d="M292.14 139.663H289.397V130.775H292.262C293.124 130.775 293.862 130.953 294.475 131.309C295.088 131.662 295.558 132.169 295.885 132.832C296.212 133.492 296.376 134.282 296.376 135.202C296.376 136.127 296.211 136.925 295.881 137.593C295.551 138.258 295.071 138.77 294.44 139.129C293.809 139.485 293.043 139.663 292.14 139.663ZM290.473 138.708H292.071C292.805 138.708 293.414 138.567 293.898 138.283C294.381 137.999 294.741 137.596 294.978 137.072C295.216 136.548 295.334 135.925 295.334 135.202C295.334 134.484 295.217 133.866 294.983 133.348C294.748 132.828 294.398 132.428 293.932 132.151C293.467 131.87 292.886 131.73 292.192 131.73H290.473V138.708ZM299.258 130.775V139.663H298.181V130.775H299.258ZM306.276 132.997C306.224 132.557 306.013 132.216 305.643 131.973C305.272 131.73 304.818 131.608 304.28 131.608C303.887 131.608 303.542 131.672 303.247 131.799C302.955 131.926 302.726 132.101 302.561 132.324C302.399 132.547 302.318 132.8 302.318 133.084C302.318 133.321 302.375 133.525 302.488 133.696C302.603 133.863 302.751 134.004 302.93 134.117C303.11 134.227 303.298 134.318 303.494 134.39C303.691 134.459 303.872 134.516 304.037 134.559L304.94 134.802C305.171 134.863 305.429 134.947 305.712 135.054C305.999 135.161 306.272 135.307 306.532 135.492C306.796 135.675 307.013 135.909 307.183 136.195C307.354 136.482 307.44 136.833 307.44 137.25C307.44 137.73 307.314 138.164 307.062 138.552C306.813 138.94 306.449 139.248 305.968 139.476C305.491 139.705 304.911 139.819 304.228 139.819C303.591 139.819 303.04 139.717 302.574 139.511C302.111 139.306 301.747 139.019 301.481 138.652C301.217 138.284 301.068 137.858 301.034 137.372H302.145C302.174 137.707 302.287 137.985 302.483 138.205C302.683 138.422 302.935 138.584 303.238 138.691C303.545 138.795 303.875 138.847 304.228 138.847C304.639 138.847 305.008 138.781 305.335 138.648C305.662 138.512 305.921 138.323 306.111 138.083C306.302 137.84 306.398 137.557 306.398 137.233C306.398 136.938 306.315 136.697 306.151 136.512C305.986 136.327 305.769 136.177 305.5 136.061C305.23 135.945 304.94 135.844 304.627 135.757L303.534 135.445C302.839 135.245 302.289 134.96 301.884 134.59C301.479 134.219 301.277 133.735 301.277 133.136C301.277 132.638 301.411 132.204 301.68 131.834C301.952 131.461 302.317 131.171 302.774 130.966C303.234 130.757 303.748 130.653 304.315 130.653C304.888 130.653 305.397 130.756 305.842 130.961C306.288 131.164 306.641 131.442 306.901 131.795C307.165 132.148 307.304 132.548 307.318 132.997H306.276ZM316.361 133.552H315.285C315.221 133.243 315.11 132.971 314.951 132.736C314.795 132.502 314.604 132.305 314.378 132.146C314.155 131.984 313.908 131.863 313.636 131.782C313.364 131.701 313.08 131.66 312.785 131.66C312.247 131.66 311.76 131.796 311.323 132.068C310.889 132.34 310.543 132.741 310.285 133.27C310.031 133.8 309.904 134.449 309.904 135.219C309.904 135.989 310.031 136.638 310.285 137.168C310.543 137.697 310.889 138.098 311.323 138.37C311.76 138.642 312.247 138.778 312.785 138.778C313.08 138.778 313.364 138.737 313.636 138.656C313.908 138.575 314.155 138.455 314.378 138.296C314.604 138.134 314.795 137.936 314.951 137.701C315.11 137.464 315.221 137.192 315.285 136.885H316.361C316.28 137.34 316.133 137.746 315.919 138.105C315.705 138.464 315.438 138.769 315.12 139.021C314.802 139.27 314.445 139.459 314.048 139.589C313.655 139.72 313.234 139.785 312.785 139.785C312.027 139.785 311.353 139.599 310.763 139.229C310.173 138.859 309.708 138.332 309.37 137.649C309.031 136.967 308.862 136.156 308.862 135.219C308.862 134.282 309.031 133.471 309.37 132.789C309.708 132.106 310.173 131.579 310.763 131.209C311.353 130.838 312.027 130.653 312.785 130.653C313.234 130.653 313.655 130.718 314.048 130.849C314.445 130.979 314.802 131.17 315.12 131.421C315.438 131.67 315.705 131.974 315.919 132.333C316.133 132.689 316.28 133.095 316.361 133.552ZM325.6 135.219C325.6 136.156 325.431 136.967 325.092 137.649C324.754 138.332 324.29 138.859 323.699 139.229C323.109 139.599 322.435 139.785 321.677 139.785C320.919 139.785 320.245 139.599 319.654 139.229C319.064 138.859 318.6 138.332 318.261 137.649C317.923 136.967 317.753 136.156 317.753 135.219C317.753 134.282 317.923 133.471 318.261 132.789C318.6 132.106 319.064 131.579 319.654 131.209C320.245 130.838 320.919 130.653 321.677 130.653C322.435 130.653 323.109 130.838 323.699 131.209C324.29 131.579 324.754 132.106 325.092 132.789C325.431 133.471 325.6 134.282 325.6 135.219ZM324.559 135.219C324.559 134.449 324.43 133.8 324.172 133.27C323.918 132.741 323.572 132.34 323.135 132.068C322.701 131.796 322.215 131.66 321.677 131.66C321.139 131.66 320.651 131.796 320.214 132.068C319.78 132.34 319.435 132.741 319.177 133.27C318.922 133.8 318.795 134.449 318.795 135.219C318.795 135.989 318.922 136.638 319.177 137.168C319.435 137.697 319.78 138.098 320.214 138.37C320.651 138.642 321.139 138.778 321.677 138.778C322.215 138.778 322.701 138.642 323.135 138.37C323.572 138.098 323.918 137.697 324.172 137.168C324.43 136.638 324.559 135.989 324.559 135.219ZM333.243 130.775H334.319V136.66C334.319 137.267 334.176 137.81 333.89 138.287C333.606 138.762 333.205 139.137 332.687 139.411C332.169 139.683 331.562 139.819 330.865 139.819C330.167 139.819 329.56 139.683 329.042 139.411C328.524 139.137 328.122 138.762 327.835 138.287C327.552 137.81 327.41 137.267 327.41 136.66V130.775H328.486V136.573C328.486 137.007 328.582 137.393 328.773 137.732C328.964 138.067 329.236 138.332 329.589 138.526C329.945 138.717 330.37 138.812 330.865 138.812C331.359 138.812 331.785 138.717 332.141 138.526C332.496 138.332 332.768 138.067 332.956 137.732C333.147 137.393 333.243 137.007 333.243 136.573V130.775ZM343.517 130.775V139.663H342.475L337.632 132.684H337.545V139.663H336.469V130.775H337.51L342.371 137.771H342.458V130.775H343.517ZM345.184 131.73V130.775H351.851V131.73H349.056V139.663H347.979V131.73H345.184Z" fill="#141829"/>
<path d="M351.48 105.789H285.713V144.072H351.48V105.789Z" stroke="#2C3540" stroke-width="0.9816" stroke-miterlimit="10"/>
<path d="M306.326 69.4698H259.21C256.499 69.4698 254.302 67.2728 254.302 64.5618C254.302 61.8508 256.5 59.6538 259.21 59.6538H306.327C309.038 59.6538 311.235 61.8508 311.235 64.5618C311.234 67.2728 309.037 69.4698 306.326 69.4698Z" fill="#131A36"/>
<path d="M246.711 174.662H178.718V105.789H261.525L246.711 174.662Z" fill="#F2C38A"/>
<path d="M280.663 169.111L246.711 174.662V105.789H280.663V169.111Z" fill="#F2B468"/>
<path d="M142.932 222.979H100.487V279.243H142.932V222.979Z" fill="#4DC7B8"/>
<path d="M127.138 222.979H116.28V277.269H127.138V222.979Z" fill="#A8E4DC"/>
<path d="M181.429 196.328H151.816V244.696H181.429V196.328Z" fill="#4DC7B8"/>
<path d="M171.558 196.328H160.7V244.696H171.558V196.328Z" fill="#A8E4DC"/>
<path d="M183.403 244.695H121.216V277.269H183.403V244.695Z" fill="#F2C38A"/>
<path d="M156.751 244.695H146.88V277.269H156.751V244.695Z" fill="#FBEBD7"/>
<path d="M70.3799 210.394H75.7179C81.2229 210.394 85.9629 214.28 87.0429 219.679L98.7589 278.257V296.459C98.7589 302.08 103.316 306.636 108.936 306.636H182.662" stroke="#5B7A87" stroke-width="3.9484" stroke-miterlimit="10" stroke-linecap="round" stroke-linejoin="round"/>
<path d="M89.6289 230.136H196.235L180.195 279.49H98.7589" stroke="#5B7A87" stroke-width="3.9484" stroke-miterlimit="10" stroke-linecap="round" stroke-linejoin="round"/>
<path d="M113.291 230.136L118.4 279.49" stroke="#5B7A87" stroke-width="1.9742" stroke-miterlimit="10" stroke-linecap="round" stroke-linejoin="round"/>
<path d="M165.517 230.136L159.556 279.49" stroke="#5B7A87" stroke-width="1.9742" stroke-miterlimit="10" stroke-linecap="round" stroke-linejoin="round"/>
<path d="M140.823 230.136V279.49" stroke="#5B7A87" stroke-width="1.9742" stroke-miterlimit="10" stroke-linecap="round" stroke-linejoin="round"/>
<path d="M128.192 316.822C132.047 312.967 132.047 306.717 128.192 302.862C124.337 299.007 118.088 299.007 114.233 302.862C110.378 306.717 110.378 312.967 114.233 316.822C118.088 320.676 124.337 320.676 128.192 316.822Z" fill="#5B7A87"/>
<path d="M124.238 317.133C128.264 315.456 130.168 310.833 128.491 306.807C126.814 302.781 122.191 300.877 118.165 302.554C114.139 304.231 112.235 308.854 113.912 312.88C115.589 316.906 120.212 318.81 124.238 317.133Z" fill="white"/>
<path d="M126.151 309.844C126.151 312.57 123.941 314.78 121.215 314.78C118.489 314.78 116.279 312.57 116.279 309.844C116.279 307.118 118.489 304.909 121.215 304.909C123.941 304.909 126.151 307.118 126.151 309.844Z" fill="#5B7A87"/>
<path d="M169.65 316.822C173.505 312.967 173.505 306.717 169.65 302.862C165.795 299.008 159.545 299.008 155.69 302.862C151.835 306.717 151.835 312.967 155.69 316.822C159.545 320.677 165.795 320.677 169.65 316.822Z" fill="#5B7A87"/>
<path d="M168.623 315.026C171.489 311.739 171.148 306.75 167.861 303.884C164.573 301.018 159.585 301.359 156.719 304.646C153.852 307.933 154.194 312.922 157.481 315.788C160.768 318.654 165.756 318.313 168.623 315.026Z" fill="white"/>
<path d="M167.609 309.844C167.609 312.57 165.399 314.78 162.674 314.78C159.948 314.78 157.738 312.57 157.738 309.844C157.738 307.118 159.948 304.909 162.674 304.909C165.399 304.908 167.609 307.118 167.609 309.844Z" fill="#5B7A87"/>
<path d="M92.4419 246.669H190.861" stroke="#5B7A87" stroke-width="1.9742" stroke-miterlimit="10" stroke-linecap="round" stroke-linejoin="round"/>
<path d="M96.0449 264.437H184.883" stroke="#5B7A87" stroke-width="1.9742" stroke-miterlimit="10" stroke-linecap="round" stroke-linejoin="round"/>
<path d="M72.3538 215.082H55.5738C53.1208 215.082 51.1318 213.093 51.1318 210.64C51.1318 208.187 53.1208 206.198 55.5738 206.198H72.3548C74.8078 206.198 76.7968 208.187 76.7968 210.64C76.7958 213.094 74.8078 215.082 72.3538 215.082Z" fill="#5B7A87"/>
<path d="M347.322 279.485H314.676V324.687H347.322V279.485Z" fill="#F2C38A"/>
<path d="M379.968 279.485H347.322V324.687H379.968V279.485Z" fill="#F2B468"/>
<path d="M334.813 279.485H327.49V324.687H334.813V279.485Z" fill="#F2B468"/>
<path d="M367.764 279.485H360.442V324.687H367.764V279.485Z" fill="#F2C38A"/>
<path d="M393.318 249.103H360.627V324.686H393.318V249.103Z" fill="#DD4C65"/>
<path d="M422.208 249.103H389.517V324.686H422.208V249.103Z" fill="#DD314E"/>
<path d="M222.891 105.789H197.369V174.501H222.891V105.789Z" fill="#F2B468"/>
<path d="M274.915 169.594L256.265 173.52V105.789H274.915V169.594Z" fill="#F2C38A"/>
<path d="M257.245 208.845C252.705 203.025 245.891 195.427 239.768 193.157L222.735 175.994C222.735 175.994 222.573 173.567 221.31 171.368C221.31 171.368 220.517 171.707 220.751 172.989C220.985 174.271 217.545 171.377 215.342 168.881C213.139 166.385 214.287 177.364 219.942 178.658L234.183 196.922C234.183 196.922 242.298 209.719 250.248 215.907C254.892 219.523 260.865 213.486 257.245 208.845Z" fill="#E8B3A0"/>
<path d="M249.813 199.257C250.109 199.205 269.064 207.552 259.969 216.746C251.118 225.696 241.469 207.126 241.469 207.126L249.813 199.257Z" fill="#4DC7B8"/>
<path d="M251.739 200.016L242.477 209.012" stroke="white" stroke-width="0.3521" stroke-miterlimit="10"/>
<path d="M255.702 202.168C259.231 204.971 263.901 212.771 259.969 216.746C257.4 219.344 254.549 219.427 251.795 218.237" stroke="white" stroke-width="0.3521" stroke-miterlimit="10"/>
<path d="M255.159 190.236L245.46 192.849L248.933 205.744L258.633 203.131L255.159 190.236Z" fill="#EBBDA0"/>
<path d="M245.46 192.836L245.665 193.597L247.292 199.637C247.292 199.637 252.874 195.326 253.173 192.836C253.471 190.346 245.46 192.836 245.46 192.836Z" fill="#DB9680"/>
<path d="M245.561 167.226C245.561 167.226 237.595 173.864 232.727 176.077C232.727 176.077 232.285 177.699 235.382 178.88C235.382 178.88 235.445 191.406 241.577 194.062C247.71 196.717 255.158 190.224 255.158 190.224C255.158 190.224 265.775 178.244 262.382 170.074C258.99 161.903 253.085 165.603 245.561 167.226Z" fill="#EBBDA0"/>
<path d="M242.651 175.066C242.29 175.793 241.656 176.213 241.233 176.003C240.81 175.794 240.759 175.034 241.12 174.307C241.48 173.58 242.115 173.16 242.538 173.37C242.961 173.58 243.012 174.339 242.651 175.066Z" fill="#060E33"/>
<path d="M241.578 170.074C241.578 170.074 244.107 170.689 244.039 172.603" stroke="#060E33" stroke-width="0.7573" stroke-miterlimit="10" stroke-linecap="round" stroke-linejoin="round"/>
<path d="M238.468 184.113C238.468 184.113 238.536 185.685 240.587 185.617C242.638 185.548 242.638 184.113 242.638 184.113" stroke="#060E33" stroke-width="0.7573" stroke-miterlimit="10" stroke-linecap="round" stroke-linejoin="round"/>
<path d="M244.824 167.521C244.824 167.521 241.807 176.063 248.74 178.423C255.673 180.783 257.166 188.927 254.069 191.73C250.971 194.533 276.408 176.076 255.15 162.8C255.15 162.8 242.611 162.802 242.021 170.029L244.824 167.521Z" fill="#37424F"/>
<path d="M253.174 192.836C253.174 192.836 273.658 187.708 265.153 170.49C258.094 156.199 247.514 164.123 247.514 164.123C247.514 164.123 259.479 183.505 253.174 192.836Z" fill="#37424F"/>
<path d="M273.181 326.653L262.957 331.58C262.018 332.033 262.34 333.444 263.383 333.444H272.469C272.721 333.444 272.963 333.347 273.146 333.173L273.986 332.371V333.745H277.974C278.593 333.745 279.057 333.179 278.936 332.572L277.793 326.855C277.69 326.342 277.202 325.999 276.685 326.078L273.462 326.566C273.363 326.581 273.269 326.61 273.181 326.653Z" fill="#4DC7B8"/>
<path d="M266.409 239.264C266.409 239.264 278.138 263.234 269.129 288.748C269.129 288.748 278.643 313.538 277.607 325.939L273.062 326.742L256.886 289.57L253.181 248.358L266.409 239.264Z" fill="#272F38"/>
<path d="M244.905 327.346L234.818 332.208C233.813 332.692 234.158 334.202 235.273 334.202H244.452L245.576 333.129V334.503H250.76L248.848 327.606L244.905 327.346Z" fill="#4DC7B8"/>
<path d="M266.409 239.264C266.409 239.264 268.577 251.001 249.63 289.189C249.63 289.189 252.047 301.977 248.848 327.605H244.996L236.806 291.674L242.809 241.87L266.409 239.264Z" fill="#37424F"/>
<path d="M247.42 200.115L233.095 253.162C233.095 253.162 263.286 260.765 275.042 253.259L257.823 200.115H247.42Z" fill="#4DC7B8"/>
<path d="M248.41 208.845C243.87 203.025 237.056 195.427 230.933 193.157L213.9 175.994C213.9 175.994 213.738 173.567 212.475 171.368C212.475 171.368 211.682 171.707 211.916 172.989C212.151 174.271 208.71 171.377 206.507 168.881C204.304 166.385 205.452 177.364 211.107 178.658L225.348 196.922C225.348 196.922 233.463 209.719 241.413 215.907C246.058 219.523 252.03 213.486 248.41 208.845Z" fill="#E8B3A0"/>
<path d="M240.978 199.257C241.274 199.205 260.229 207.552 251.135 216.746C242.284 225.696 232.635 207.126 232.635 207.126L240.978 199.257Z" fill="#4DC7B8"/>
<path d="M242.905 200.016L233.642 209.012" stroke="white" stroke-width="0.3521" stroke-miterlimit="10"/>
<path d="M246.867 202.168C250.396 204.971 255.066 212.771 251.134 216.746C248.565 219.344 245.714 219.427 242.96 218.237" stroke="white" stroke-width="0.3521" stroke-miterlimit="10"/>
<path d="M250.375 162.722C250.375 162.722 269.027 159.777 270.99 170.575C272.953 181.373 261.173 185.299 266.081 195.115C270.989 204.931 274.915 233.398 261.173 229.471C247.431 225.545 251.837 191.827 257.977 186.6C264.118 181.373 263.136 163.704 250.375 162.722Z" fill="#37424F"/>
<path d="M421.658 204.75L405.86 209.469C405.86 209.469 383.563 199.533 382.987 199.865C382.411 200.197 378.086 193.872 377.715 193.717C377.344 193.561 370.164 194.037 372.199 200.273C374.235 206.509 381.224 204.063 381.224 204.063L400.55 219.193C401.759 220.14 403.327 220.5 404.828 220.177L424.205 216.002L421.658 204.75Z" fill="#E8B3A0"/>
<path d="M416.059 246.673C416.059 246.673 406.116 266.56 401.436 284.984L407.285 324.465H412.257C412.257 324.465 420.156 297.76 412.549 285.569C412.549 285.569 440.332 271.239 445.011 245.21L416.059 246.673Z" fill="#37424F"/>
<path d="M407.286 324.466C407.286 324.466 389.979 331.557 395.691 331.557C395.784 331.557 411.943 331.557 411.943 331.557L412.259 324.466H407.286Z" fill="#131A36"/>
<path d="M445.012 245.21L435.069 324.466H430.39L425.418 269.192L445.012 245.21Z" fill="#2C3540"/>
<path d="M430.243 324.466C430.243 324.466 416.506 331.557 418.648 331.557C423.224 331.557 434.899 331.557 434.899 331.557L435.215 324.466H430.243Z" fill="#131A36"/>
<path d="M438.786 187.809C438.786 187.809 446.832 210.626 451.123 245.212C451.123 245.212 422.427 254.877 409.554 245.212L414.382 224.015C414.382 224.015 406.976 216.506 403.974 207.924L427.549 189.419C427.549 189.419 434.495 194.782 438.786 187.809Z" fill="#F2B468"/>
<path d="M414.381 224.014C414.381 224.014 425.869 224.282 429.914 207.118" stroke="white" stroke-width="0.717" stroke-miterlimit="10"/>
<path d="M428.997 220.795V242.787" stroke="white" stroke-width="0.717" stroke-miterlimit="10"/>
<path d="M407.22 205.375C407.22 205.375 411.826 217.833 420.412 222.13" stroke="white" stroke-width="0.717" stroke-miterlimit="10"/>
<path d="M426.946 184.855L437.549 173.448L439.362 189.416C439.362 189.416 432.439 193.868 426.946 190.505V184.855Z" fill="#E8B3A0"/>
<path d="M438.238 179.522C438.238 179.522 433.918 188.972 426.946 188.389V183.968L437.637 174.16L438.238 179.522Z" fill="#E89B80"/>
<path d="M419.132 158.72C419.132 158.72 417.752 159.251 417.965 166.786C417.965 166.786 415.418 169.546 413.72 171.137C412.022 172.729 415.949 173.578 415.949 173.578C415.949 173.578 416.798 187.193 424.97 185.745C433.142 184.297 435.265 174.852 435.265 174.852C435.265 174.852 438.555 173.154 437.388 169.227C436.221 165.3 433.355 169.227 433.355 169.227L433.779 159.675C433.779 159.675 426.985 152.671 419.132 158.72Z" fill="#E8B3A0"/>
<path d="M418.495 178.248C418.495 178.248 424.051 180.265 425.465 175.489" stroke="#37424F" stroke-width="0.717" stroke-miterlimit="10" stroke-linecap="round" stroke-linejoin="round"/>
<path d="M420.724 166.415C420.724 167.265 420.391 167.954 419.981 167.954C419.571 167.954 419.238 167.265 419.238 166.415C419.238 165.565 419.571 164.876 419.981 164.876C420.391 164.876 420.724 165.565 420.724 166.415Z" fill="#37424F"/>
<path d="M420.724 162.01C420.724 162.01 424.226 162.222 424.332 164.876" stroke="#37424F" stroke-width="1.0755" stroke-miterlimit="10" stroke-linecap="round" stroke-linejoin="round"/>
<path d="M425.1 158.796C425.1 158.796 414.302 164.686 413.321 159.778C412.339 154.87 424.332 156.377 424.332 156.377C424.332 156.377 413.321 155.852 416.266 151.925C419.211 147.999 427.064 153.888 427.064 153.888C427.064 153.888 426.082 145.054 430.99 147.998C435.898 150.943 435.898 155.851 435.898 155.851C435.898 155.851 442.769 151.925 441.788 161.741C440.806 171.557 435.125 176.465 435.125 176.465L434.916 174.502C434.916 174.502 438.606 171.222 436.761 167.954C436.761 167.954 435.898 166.649 432.953 169.594C432.953 169.594 429.027 171.557 430.008 161.741C430.008 161.741 421.174 168.612 425.1 158.796Z" fill="#37424F"/>
<path d="M142.399 91.0649C142.399 100.281 134.928 107.752 125.712 107.752C116.496 107.752 109.025 100.281 109.025 91.0649C109.025 81.8489 116.496 74.3779 125.712 74.3779C134.928 74.3779 142.399 81.8489 142.399 91.0649Z" stroke="#DD4C65" stroke-width="1.7773" stroke-miterlimit="10"/>
<path d="M125.034 101.446V76.0591H126.66V101.446H125.034ZM130.508 83.6753C130.389 82.6704 129.906 81.8902 129.06 81.3349C128.214 80.7796 127.176 80.5019 125.946 80.5019C125.047 80.5019 124.26 80.6473 123.586 80.9382C122.918 81.2291 122.396 81.6291 122.019 82.1382C121.649 82.6472 121.464 83.2257 121.464 83.8736C121.464 84.4158 121.592 84.8819 121.85 85.2719C122.115 85.6554 122.452 85.976 122.862 86.2339C123.272 86.4851 123.701 86.6934 124.151 86.8586C124.601 87.0173 125.014 87.1462 125.391 87.2454L127.453 87.8007C127.982 87.9396 128.571 88.1313 129.219 88.3759C129.873 88.6205 130.498 88.9544 131.093 89.3775C131.695 89.794 132.19 90.3296 132.58 90.9841C132.97 91.6386 133.166 92.4419 133.166 93.3939C133.166 94.4914 132.878 95.4831 132.303 96.369C131.734 97.2549 130.901 97.959 129.804 98.4813C128.713 99.0036 127.387 99.2647 125.827 99.2647C124.372 99.2647 123.113 99.03 122.049 98.5606C120.991 98.0912 120.158 97.4367 119.55 96.5971C118.948 95.7574 118.607 94.7823 118.528 93.6716H121.067C121.133 94.4385 121.391 95.0732 121.84 95.5756C122.297 96.0715 122.872 96.4417 123.566 96.6863C124.267 96.9243 125.02 97.0433 125.827 97.0433C126.766 97.0433 127.609 96.8913 128.356 96.5872C129.103 96.2764 129.695 95.8467 130.131 95.2979C130.567 94.7426 130.785 94.0947 130.785 93.3542C130.785 92.6799 130.597 92.1311 130.22 91.708C129.843 91.2849 129.347 90.9411 128.733 90.6767C128.118 90.4122 127.453 90.1808 126.739 89.9825L124.24 89.2684C122.654 88.8123 121.397 88.1611 120.472 87.3148C119.546 86.4686 119.083 85.3612 119.083 83.9926C119.083 82.8555 119.391 81.8638 120.006 81.0176C120.627 80.1647 121.46 79.5036 122.505 79.0342C123.556 78.5582 124.73 78.3201 126.025 78.3201C127.334 78.3201 128.498 78.5548 129.516 79.0243C130.534 79.487 131.341 80.1217 131.936 80.9283C132.537 81.7349 132.855 82.6505 132.888 83.6753H130.508Z" fill="#DD4C65"/>
<path d="M33.7579 256.756C41.9263 251.708 44.4561 240.995 39.4084 232.826C34.3606 224.658 23.6467 222.128 15.4783 227.176C7.30982 232.223 4.78003 242.937 9.82782 251.106C14.8756 259.274 25.5895 261.804 33.7579 256.756Z" stroke="#F2A952" stroke-width="1.8517" stroke-miterlimit="10"/>
<path d="M28.4653 246.021V244.905C28.4653 244.134 28.6237 243.428 28.9405 242.787C29.2643 242.14 29.7327 241.623 30.3457 241.238C30.9656 240.845 31.7164 240.649 32.5981 240.649C33.4935 240.649 34.2443 240.845 34.8504 241.238C35.4566 241.623 35.9146 242.14 36.2246 242.787C36.5346 243.428 36.6895 244.134 36.6895 244.905V246.021C36.6895 246.793 36.5311 247.502 36.2143 248.15C35.9043 248.79 35.4428 249.307 34.8298 249.699C34.2236 250.085 33.4797 250.278 32.5981 250.278C31.7026 250.278 30.9484 250.085 30.3354 249.699C29.7223 249.307 29.2574 248.79 28.9405 248.15C28.6237 247.502 28.4653 246.793 28.4653 246.021ZM30.573 244.905V246.021C30.573 246.662 30.7245 247.237 31.0276 247.747C31.3307 248.25 31.8542 248.501 32.5981 248.501C33.3213 248.501 33.831 248.25 34.1272 247.747C34.4303 247.237 34.5818 246.662 34.5818 246.021V244.905C34.5818 244.265 34.4372 243.693 34.1479 243.19C33.8586 242.681 33.342 242.426 32.5981 242.426C31.8748 242.426 31.3548 242.681 31.0379 243.19C30.728 243.693 30.573 244.265 30.573 244.905ZM17.9266 233.912V232.796C17.9266 232.025 18.0851 231.319 18.4019 230.678C18.7256 230.031 19.194 229.514 19.8071 229.128C20.427 228.736 21.1778 228.54 22.0594 228.54C22.9549 228.54 23.7057 228.736 24.3118 229.128C24.9179 229.514 25.376 230.031 25.686 230.678C25.9959 231.319 26.1509 232.025 26.1509 232.796V233.912C26.1509 234.684 25.9925 235.393 25.6756 236.041C25.3657 236.681 24.9042 237.198 24.2911 237.59C23.685 237.976 22.9411 238.169 22.0594 238.169C21.164 238.169 20.4098 237.976 19.7967 237.59C19.1837 237.198 18.7188 236.681 18.4019 236.041C18.0851 235.393 17.9266 234.684 17.9266 233.912ZM20.0344 232.796V233.912C20.0344 234.553 20.1859 235.128 20.489 235.638C20.792 236.14 21.3155 236.392 22.0594 236.392C22.7827 236.392 23.2924 236.14 23.5886 235.638C23.8916 235.128 24.0432 234.553 24.0432 233.912V232.796C24.0432 232.156 23.8985 231.584 23.6092 231.081C23.3199 230.572 22.8033 230.317 22.0594 230.317C21.3362 230.317 20.8161 230.572 20.4993 231.081C20.1893 231.584 20.0344 232.156 20.0344 232.796ZM18.7119 249.989L33.2593 228.829H35.615L21.0676 249.989H18.7119Z" fill="#F2A952"/>
<path d="M411.06 35.6145C418.025 29.8707 419.016 19.5681 413.272 12.6028C407.528 5.63755 397.225 4.6473 390.26 10.391C383.295 16.1348 382.305 26.4375 388.048 33.4027C393.792 40.368 404.095 41.3582 411.06 35.6145Z" stroke="#4DC7B8" stroke-width="1.7411" stroke-miterlimit="10"/>
<path d="M409.265 15.9909C407.381 14.1079 404.327 14.1079 402.443 15.9909L400.664 17.7699L398.885 15.9909C397.002 14.1079 393.948 14.1079 392.064 15.9909C390.18 17.8749 390.18 20.9289 392.064 22.8119L393.843 24.5909L400.664 31.4119L407.486 24.5909L409.265 22.8119C411.148 20.9279 411.148 17.8739 409.265 15.9909Z" fill="#4DC7B8"/>
</svg>
