<svg width="1034" height="809" viewBox="0 0 1034 809" fill="none" xmlns="http://www.w3.org/2000/svg">
<path d="M524.731 808.149C747.651 808.149 928.363 627.437 928.363 404.517C928.363 181.597 747.651 0.88501 524.731 0.88501C301.811 0.88501 121.099 181.597 121.099 404.517C121.099 627.437 301.811 808.149 524.731 808.149Z" fill="#E5F1FC"/>
<path d="M846.884 139.365H170.062C155.908 139.365 144.435 150.838 144.435 164.992V546.394H872.511V164.992C872.51 150.838 861.037 139.365 846.884 139.365Z" fill="#001557"/>
<path d="M144.435 546.394V570.692C144.435 584.846 155.908 596.319 170.062 596.319H846.884C861.037 596.319 872.511 584.845 872.511 570.692V546.394H144.435Z" fill="#BFD7F6"/>
<path d="M590.112 679.99H508.473H426.833C389.004 687.386 332.033 700.33 332.033 700.33H508.472H684.911C684.911 700.33 627.941 687.386 590.112 679.99Z" fill="white"/>
<path d="M508.473 700.33H332.55C330.875 700.33 329.516 701.688 329.516 703.364V710.24C329.516 711.915 330.874 713.274 332.55 713.274H508.473H684.396C686.071 713.274 687.43 711.916 687.43 710.24V703.364C687.43 701.689 686.072 700.33 684.396 700.33H508.473Z" fill="#B9D3F6"/>
<path d="M508.473 596.319H417.608L409.013 684.696C408.883 686.029 409.931 687.184 411.27 687.184H508.473H605.676C607.015 687.184 608.063 686.029 607.933 684.696L599.338 596.319H508.473Z" fill="#90BCF0"/>
<path d="M508.473 583.909C500.712 583.909 494.397 577.595 494.397 569.833C494.397 562.07 500.711 555.756 508.473 555.756C516.235 555.756 522.549 562.07 522.549 569.833C522.548 577.595 516.234 583.909 508.473 583.909ZM508.473 557.906C501.896 557.906 496.547 563.257 496.547 569.834C496.547 576.41 501.897 581.76 508.473 581.76C515.049 581.76 520.399 576.41 520.399 569.834C520.399 563.258 515.049 557.906 508.473 557.906Z" fill="white"/>
<path d="M854.597 157.278H162.348V532.988H854.597V157.278Z" fill="#0067DF"/>
<path d="M217.763 185.274H162.348V506.564H217.763C229.521 506.564 239.053 497.032 239.053 485.274V206.564C239.053 194.806 229.521 185.274 217.763 185.274Z" fill="white"/>
<path d="M854.597 185.274H810.942C799.184 185.274 789.652 194.806 789.652 206.564V485.274C789.652 497.032 799.184 506.564 810.942 506.564H854.597V185.274Z" fill="white"/>
<path d="M653.172 106.32L580.966 88.502C577.922 92.18 576.011 96.7249 575.56 101.578L564.585 219.771C564.585 219.771 589.761 228.841 601.387 206.677C613.013 184.513 621.047 120.722 621.047 120.722L653.172 106.32Z" fill="#E1787F"/>
<path d="M665.798 82.045L571.918 46.7319L535.702 71.0409C529.182 75.4179 524.929 82.4519 524.084 90.2599L509.917 221.117C509.917 221.117 537.677 231.599 550.941 207.222C564.205 182.845 574.192 112.255 574.192 112.255L646.448 81.1779L665.798 82.045Z" fill="#E1787F"/>
<path d="M805.889 56.8141L637.912 12.5441C625.514 9.27607 612.325 11.0881 601.266 17.5761L497.817 78.2731C491.044 82.2471 486.373 89.0121 485.057 96.7531L463 226.513C463 226.513 490.075 238.655 504.789 215.125C519.504 191.595 539.888 120.886 539.888 120.886L624.186 103.451L814.359 116.954L805.889 56.8141Z" fill="#EAADA9"/>
<path d="M725.247 506.564H303.311C291.553 506.564 282.021 497.032 282.021 485.274V206.564C282.021 194.806 291.553 185.274 303.311 185.274H725.247C737.005 185.274 746.537 194.806 746.537 206.564V485.274C746.537 497.032 737.005 506.564 725.247 506.564Z" fill="white"/>
<path d="M714.021 252.664H574.021V274.301H714.021V252.664Z" fill="#90BCF0"/>
<path d="M706.289 288.005H574.021V309.642H706.289V288.005Z" fill="#90BCF0"/>
<path d="M696.521 323.345H574.021V344.982H696.521V323.345Z" fill="#90BCF0"/>
<path d="M714.021 358.686H574.021V380.323H714.021V358.686Z" fill="#90BCF0"/>
<path d="M694.622 461.135H585.687C578.632 461.135 572.914 455.416 572.914 448.362V421.419C572.914 414.364 578.633 408.646 585.687 408.646H694.622C701.676 408.646 707.395 414.365 707.395 421.419V448.362C707.395 455.416 701.676 461.135 694.622 461.135Z" fill="#FF5617"/>
<path d="M601.78 447.669C601.508 447.669 601.286 447.576 601.113 447.391C600.94 447.206 600.854 446.99 600.854 446.743V422.666C600.854 422.395 600.941 422.172 601.113 421.999C601.285 421.827 601.508 421.74 601.78 421.74H613.078C615.202 421.74 616.943 422.036 618.301 422.629C619.659 423.222 620.665 424.068 621.32 425.166C621.974 426.265 622.302 427.568 622.302 429.074C622.302 429.963 622.135 430.747 621.802 431.426C621.469 432.106 621.061 432.667 620.58 433.111C620.099 433.556 619.648 433.877 619.228 434.075C620.166 434.519 621 435.248 621.729 436.261C622.457 437.274 622.822 438.459 622.822 439.817C622.822 441.447 622.457 442.848 621.729 444.021C621 445.194 619.938 446.095 618.543 446.725C617.148 447.355 615.437 447.67 613.413 447.67L601.78 447.669ZM607.521 432.037H612.336C613.348 432.037 614.107 431.772 614.614 431.241C615.12 430.71 615.373 430.05 615.373 429.259C615.373 428.469 615.12 427.821 614.614 427.314C614.107 426.808 613.348 426.555 612.336 426.555H607.521V432.037ZM607.521 442.854H612.67C613.732 442.854 614.534 442.546 615.078 441.928C615.621 441.311 615.893 440.607 615.893 439.817C615.893 438.953 615.615 438.224 615.06 437.632C614.504 437.039 613.708 436.743 612.671 436.743H607.522L607.521 442.854Z" fill="white"/>
<path d="M639.636 448.04C637.388 448.04 635.432 447.675 633.765 446.947C632.098 446.219 630.807 445.095 629.894 443.576C628.98 442.057 628.523 440.126 628.523 437.779V422.666C628.523 422.395 628.609 422.172 628.783 421.999C628.955 421.827 629.178 421.74 629.45 421.74H634.228C634.499 421.74 634.728 421.827 634.913 421.999C635.098 422.172 635.191 422.394 635.191 422.666V437.742C635.191 439.348 635.573 440.552 636.339 441.354C637.104 442.157 638.191 442.558 639.599 442.558C640.982 442.558 642.063 442.157 642.84 441.354C643.618 440.552 644.007 439.348 644.007 437.742V422.666C644.007 422.395 644.1 422.172 644.285 421.999C644.47 421.827 644.686 421.74 644.933 421.74H649.749C649.996 421.74 650.212 421.827 650.397 421.999C650.582 422.172 650.675 422.394 650.675 422.666V437.779C650.675 440.126 650.218 442.058 649.305 443.576C648.391 445.095 647.107 446.219 645.453 446.947C643.797 447.675 641.859 448.04 639.636 448.04Z" fill="white"/>
<path d="M665.009 447.669C664.762 447.669 664.546 447.576 664.361 447.391C664.176 447.206 664.083 446.99 664.083 446.743V438.779L655.489 422.925C655.464 422.851 655.439 422.784 655.415 422.722C655.39 422.66 655.378 422.592 655.378 422.519C655.378 422.321 655.458 422.142 655.619 421.982C655.779 421.821 655.971 421.741 656.193 421.741H660.823C661.193 421.741 661.483 421.834 661.693 422.019C661.903 422.204 662.045 422.371 662.119 422.519L667.416 432.076L672.75 422.519C672.824 422.371 672.966 422.204 673.176 422.019C673.385 421.834 673.676 421.741 674.046 421.741H678.676C678.898 421.741 679.084 421.821 679.232 421.982C679.38 422.143 679.454 422.321 679.454 422.519C679.454 422.593 679.448 422.661 679.436 422.722C679.423 422.784 679.405 422.851 679.381 422.925L670.787 438.779V446.743C670.787 446.99 670.694 447.206 670.509 447.391C670.324 447.576 670.095 447.669 669.823 447.669H665.009Z" fill="white"/>
<path d="M346.685 266.292L305.252 324.855L346.685 366.695L368.531 324.855L346.685 266.292Z" fill="#91310D"/>
<path d="M515.427 266.292L467.956 252.793C467.956 252.793 460.435 280.455 431.056 280.455C401.677 280.455 394.156 252.793 394.156 252.793L346.685 266.292L368.531 324.855L355.35 455.375H431.057H506.763L493.582 324.855L515.427 266.292Z" fill="#FF5617"/>
<path d="M515.427 266.292L556.86 324.855L515.427 366.695L493.581 324.855L515.427 266.292Z" fill="#91310D"/>
<path d="M430.868 296.289C409.364 296.289 391.622 284.288 383.408 264.187C382.995 263.175 383.418 261.993 384.355 261.546C385.292 261.098 386.387 261.558 386.8 262.569C394.404 281.175 410.878 292.283 430.868 292.283C450.858 292.283 467.332 281.175 474.936 262.569C475.349 261.557 476.446 261.097 477.381 261.546C478.318 261.992 478.742 263.175 478.329 264.187C470.114 284.288 452.371 296.289 430.868 296.289Z" fill="#FFCD00"/>
<path d="M814.36 116.953L807.646 188.79L685.316 203.839L619.556 158.895L607.747 95.0891L814.36 116.953Z" fill="#EAADA9"/>
<path d="M607.747 95.0891L602.78 141.959C601.045 158.327 591.239 172.718 576.683 180.401C554.616 192.048 523.67 211.048 515.844 229.425C503.337 258.794 525.095 274.795 525.095 274.795L790.339 189.176L607.747 95.0891Z" fill="#EAADA9"/>
<path d="M952.101 43.2169L801.906 44.103L802.791 194.084L952.985 193.198L952.101 43.2169Z" fill="#E5F1FC"/>
<path d="M965.98 216.483L855.027 217.135C844.192 217.199 835.357 208.467 835.294 197.632L834.369 40.2282C834.305 29.3922 843.038 20.5572 853.873 20.4932L964.825 19.8412C975.661 19.7772 984.496 28.5102 984.56 39.3452L985.485 196.747C985.548 207.584 976.816 216.419 965.98 216.483Z" fill="#002AAF"/>
<path d="M157.219 249.176C206.928 249.176 247.225 208.879 247.225 159.17C247.225 109.461 206.928 69.1641 157.219 69.1641C107.51 69.1641 67.2129 109.461 67.2129 159.17C67.2129 208.879 107.51 249.176 157.219 249.176Z" fill="#AB181B"/>
<path d="M139.798 249.176C189.507 249.176 229.804 208.879 229.804 159.17C229.804 109.461 189.507 69.1641 139.798 69.1641C90.089 69.1641 49.792 109.461 49.792 159.17C49.792 208.879 90.089 249.176 139.798 249.176Z" fill="#FF547C"/>
<path d="M111.233 158.997C105.026 158.997 100.1 157.401 96.458 154.206C92.814 151.014 90.811 146.717 90.453 141.32C90.271 138.981 90.203 136.913 90.25 135.113C90.294 133.315 90.361 131.156 90.453 128.637C90.722 123.24 92.632 118.9 96.187 115.615C99.739 112.333 104.755 110.691 111.233 110.691C117.709 110.691 122.703 112.333 126.211 115.615C129.719 118.9 131.608 123.24 131.878 128.637C132.057 131.156 132.147 133.316 132.147 135.113C132.147 136.914 132.057 138.982 131.878 141.32C131.608 146.717 129.628 151.014 125.94 154.206C122.25 157.401 117.349 158.997 111.233 158.997ZM100.437 205.819C98.367 205.819 97.334 204.92 97.334 203.12C97.334 202.58 97.513 202.088 97.874 201.636L164.531 113.929C165.159 113.12 165.791 112.492 166.42 112.04C167.048 111.592 167.993 111.366 169.254 111.366H178.835C180.903 111.366 181.938 112.266 181.938 114.065C181.938 114.605 181.758 115.1 181.398 115.549L114.741 203.256C114.111 204.065 113.48 204.696 112.852 205.145C112.222 205.596 111.278 205.819 110.018 205.819H100.437ZM111.233 147.257C112.67 147.257 113.841 146.944 114.741 146.314C115.64 145.686 116.314 144.852 116.765 143.817C117.215 142.784 117.441 141.725 117.441 140.646C117.62 138.578 117.71 136.689 117.71 134.978C117.71 133.271 117.62 131.426 117.441 129.446C117.349 127.737 116.834 126.186 115.889 124.79C114.944 123.397 113.392 122.7 111.234 122.7C108.984 122.7 107.408 123.398 106.511 124.79C105.611 126.187 105.071 127.738 104.892 129.446C104.8 131.425 104.756 133.27 104.756 134.978C104.756 136.688 104.8 138.577 104.892 140.646C105.071 141.725 105.34 142.784 105.701 143.817C106.06 144.852 106.69 145.685 107.59 146.314C108.488 146.943 109.702 147.257 111.233 147.257ZM168.31 206.493C162.192 206.493 157.313 204.874 153.669 201.635C150.026 198.398 147.979 194.08 147.53 188.681C147.44 186.344 147.396 184.276 147.396 182.475C147.396 180.676 147.44 178.518 147.53 175.997C147.888 170.511 149.845 166.125 153.4 162.841C156.952 159.559 161.922 157.917 168.31 157.917C174.788 157.917 179.78 159.559 183.288 162.841C186.797 166.126 188.73 170.512 189.09 175.997C189.27 178.517 189.361 180.676 189.361 182.475C189.361 184.275 189.271 186.343 189.09 188.681C188.729 194.08 186.706 198.397 183.019 201.635C179.329 204.875 174.427 206.493 168.31 206.493ZM168.31 194.62C169.839 194.62 171.03 194.283 171.886 193.607C172.741 192.933 173.391 192.078 173.843 191.044C174.291 190.011 174.562 188.952 174.652 187.873C174.832 185.805 174.923 183.916 174.923 182.205C174.923 180.498 174.833 178.653 174.652 176.673C174.562 174.964 174.046 173.413 173.101 172.017C172.156 170.624 170.558 169.927 168.31 169.927C166.152 169.927 164.6 170.625 163.655 172.017C162.711 173.414 162.192 174.964 162.103 176.673C162.013 178.652 161.968 180.497 161.968 182.205C161.968 183.915 162.012 185.805 162.103 187.873C162.192 188.952 162.441 190.011 162.845 191.044C163.25 192.079 163.902 192.933 164.802 193.607C165.699 194.283 166.87 194.62 168.31 194.62Z" fill="white"/>
<path d="M945.418 447.604C994.019 447.604 1033.42 408.205 1033.42 359.604C1033.42 311.003 994.019 271.604 945.418 271.604C896.817 271.604 857.418 311.003 857.418 359.604C857.418 408.205 896.817 447.604 945.418 447.604Z" fill="#FFA600"/>
<path d="M945.418 421.829C979.784 421.829 1007.64 393.97 1007.64 359.604C1007.64 325.238 979.784 297.379 945.418 297.379C911.052 297.379 883.193 325.238 883.193 359.604C883.193 393.97 911.052 421.829 945.418 421.829Z" fill="#FFCD00"/>
<path d="M941.38 402.354C940.683 402.354 940.112 402.117 939.67 401.641C939.227 401.166 939.005 400.612 939.005 399.979V393.329C934.128 392.76 930.059 391.541 926.798 389.672C923.535 387.805 921.081 385.572 919.436 382.975C917.789 380.378 916.902 377.623 916.776 374.71C916.776 374.203 916.981 373.745 917.393 373.332C917.804 372.921 918.295 372.715 918.866 372.715H930.836C931.723 372.715 932.404 372.873 932.879 373.19C933.354 373.507 933.781 373.919 934.161 374.425C934.668 375.374 935.38 376.293 936.299 377.18C937.216 378.068 938.42 378.78 939.909 379.318C941.396 379.856 943.249 380.125 945.467 380.125C949.139 380.125 951.91 379.556 953.78 378.415C955.647 377.275 956.582 375.725 956.582 373.761C956.582 372.305 956.074 371.133 955.062 370.245C954.048 369.359 952.416 368.552 950.17 367.823C947.921 367.095 944.929 366.35 941.192 365.591C936.379 364.578 932.277 363.263 928.889 361.649C925.5 360.034 922.919 357.913 921.147 355.284C919.373 352.656 918.487 349.379 918.487 345.451C918.487 340.386 920.307 336.079 923.95 332.531C927.591 328.985 932.609 326.769 939.007 325.882V319.232C939.007 318.536 939.229 317.965 939.672 317.522C940.114 317.08 940.685 316.857 941.382 316.857H949.268C949.9 316.857 950.456 317.08 950.93 317.522C951.406 317.965 951.643 318.536 951.643 319.232V326.072C956.013 326.832 959.685 328.195 962.663 330.157C965.64 332.121 967.903 334.338 969.456 336.807C971.007 339.277 971.814 341.652 971.878 343.932C971.878 344.44 971.689 344.898 971.309 345.309C970.929 345.722 970.454 345.927 969.883 345.927H957.344C956.646 345.927 956.045 345.8 955.538 345.547C955.03 345.294 954.588 344.882 954.208 344.312C953.828 342.919 952.814 341.7 951.168 340.655C949.521 339.61 947.431 339.088 944.898 339.088C942.11 339.088 939.942 339.579 938.39 340.56C936.837 341.543 936.063 343.046 936.063 345.073C936.063 346.341 936.491 347.448 937.345 348.398C938.2 349.348 939.625 350.171 941.62 350.868C943.615 351.566 946.353 352.293 949.837 353.053C955.6 354.13 960.255 355.475 963.803 357.09C967.349 358.705 969.945 360.795 971.593 363.361C973.239 365.926 974.063 369.14 974.063 373.003C974.063 376.741 973.127 380.033 971.26 382.884C969.391 385.734 966.779 388.046 963.422 389.819C960.065 391.592 956.139 392.764 951.643 393.334V399.984C951.643 400.617 951.406 401.172 950.93 401.646C950.455 402.122 949.9 402.359 949.268 402.359H941.38V402.354Z" fill="#FFEEA8"/>
<path d="M945.418 552.844C994.019 552.844 1033.42 513.445 1033.42 464.844C1033.42 416.243 994.019 376.844 945.418 376.844C896.817 376.844 857.418 416.243 857.418 464.844C857.418 513.445 896.817 552.844 945.418 552.844Z" fill="#FFA600"/>
<path d="M945.418 527.069C979.784 527.069 1007.64 499.21 1007.64 464.844C1007.64 430.478 979.784 402.619 945.418 402.619C911.052 402.619 883.193 430.478 883.193 464.844C883.193 499.21 911.052 527.069 945.418 527.069Z" fill="#FFCD00"/>
<path d="M941.38 507.594C940.683 507.594 940.112 507.357 939.67 506.881C939.227 506.406 939.005 505.852 939.005 505.219V498.569C934.128 498 930.059 496.781 926.798 494.912C923.535 493.045 921.081 490.812 919.436 488.215C917.789 485.618 916.902 482.863 916.776 479.95C916.776 479.443 916.981 478.985 917.393 478.572C917.804 478.161 918.295 477.955 918.866 477.955H930.836C931.723 477.955 932.404 478.113 932.879 478.43C933.354 478.747 933.781 479.158 934.161 479.665C934.668 480.614 935.38 481.533 936.299 482.42C937.216 483.308 938.42 484.02 939.909 484.558C941.396 485.096 943.249 485.365 945.467 485.365C949.139 485.365 951.91 484.796 953.78 483.655C955.647 482.515 956.582 480.965 956.582 479.001C956.582 477.545 956.074 476.373 955.062 475.485C954.048 474.599 952.416 473.792 950.169 473.063C947.92 472.335 944.928 471.59 941.191 470.831C936.378 469.818 932.276 468.503 928.888 466.889C925.499 465.274 922.918 463.153 921.146 460.524C919.372 457.896 918.486 454.619 918.486 450.691C918.486 445.626 920.306 441.319 923.949 437.771C927.59 434.225 932.608 432.009 939.006 431.122V424.472C939.006 423.776 939.228 423.205 939.671 422.762C940.113 422.32 940.684 422.097 941.381 422.097H949.267C949.899 422.097 950.455 422.32 950.929 422.762C951.405 423.205 951.642 423.776 951.642 424.472V431.312C956.012 432.072 959.684 433.435 962.662 435.397C965.638 437.361 967.902 439.578 969.455 442.047C971.006 444.517 971.813 446.892 971.877 449.172C971.877 449.68 971.688 450.138 971.308 450.549C970.928 450.962 970.453 451.167 969.882 451.167H957.343C956.645 451.167 956.044 451.04 955.537 450.787C955.029 450.534 954.587 450.122 954.207 449.552C953.827 448.159 952.813 446.94 951.167 445.895C949.52 444.85 947.43 444.328 944.897 444.328C942.109 444.328 939.941 444.819 938.389 445.8C936.836 446.783 936.062 448.286 936.062 450.313C936.062 451.581 936.49 452.688 937.344 453.638C938.199 454.588 939.624 455.411 941.619 456.108C943.614 456.806 946.352 457.533 949.836 458.294C955.599 459.371 960.254 460.716 963.802 462.331C967.348 463.946 969.944 466.036 971.592 468.601C973.238 471.166 974.062 474.38 974.062 478.243C974.062 481.981 973.126 485.273 971.259 488.124C969.39 490.974 966.778 493.286 963.421 495.059C960.064 496.832 956.138 498.004 951.642 498.574V505.224C951.642 505.857 951.405 506.412 950.929 506.886C950.454 507.362 949.899 507.599 949.267 507.599H941.38V507.594Z" fill="#FFEEA8"/>
<path d="M211.204 549.724C210.146 549.724 209.162 549.054 208.811 547.996C207.893 545.226 186.611 479.756 212.099 444.453C222.387 430.202 238.855 422.976 261.043 422.976C283.231 422.976 299.699 430.202 309.987 444.453C335.475 479.756 314.193 545.226 313.275 547.996C312.837 549.317 311.409 550.034 310.089 549.596C308.767 549.158 308.051 547.731 308.489 546.41C308.706 545.756 329.877 480.605 305.895 447.398C296.607 434.539 281.518 428.019 261.044 428.019C240.567 428.019 225.475 434.542 216.188 447.405C192.195 480.638 213.382 545.755 213.598 546.409C214.036 547.731 213.32 549.158 211.998 549.596C211.734 549.682 211.466 549.724 211.204 549.724Z" fill="#001557"/>
<path d="M355.71 761.003H254.54V513.761H339.671L369.01 745.915C370.024 753.923 363.782 761.003 355.71 761.003Z" fill="#FFA600"/>
<path d="M344.932 745.915L315.593 513.761H230.461H145.329L115.99 745.915C114.978 753.923 121.22 761.003 129.291 761.003H230.461H331.631C339.702 761.003 345.944 753.923 344.932 745.915Z" fill="#FFCD00"/>
<path d="M186.625 547.202C186.625 550.518 183.937 553.206 180.622 553.206C177.306 553.206 174.618 550.518 174.618 547.202C174.618 543.886 177.306 541.198 180.622 541.198C183.938 541.199 186.625 543.887 186.625 547.202Z" fill="#FF5617"/>
<path d="M274.296 547.202C274.296 550.518 276.984 553.206 280.3 553.206C283.616 553.206 286.304 550.518 286.304 547.202C286.304 543.886 283.616 541.198 280.3 541.198C276.984 541.199 274.296 543.887 274.296 547.202Z" fill="#FF5617"/>
<path d="M180.622 549.724C179.564 549.724 178.58 549.054 178.229 547.996C177.311 545.226 156.029 479.756 181.517 444.453C191.805 430.202 208.273 422.976 230.461 422.976C252.649 422.976 269.117 430.202 279.405 444.453C304.893 479.756 283.611 545.226 282.693 547.996C282.255 549.317 280.827 550.034 279.507 549.596C278.185 549.158 277.469 547.731 277.906 546.41C278.123 545.756 299.294 480.605 275.312 447.398C266.024 434.539 250.935 428.019 230.461 428.019C209.984 428.019 194.892 434.542 185.605 447.405C161.612 480.638 182.799 545.755 183.015 546.409C183.453 547.731 182.737 549.158 181.415 549.596C181.152 549.682 180.885 549.724 180.622 549.724Z" fill="#001557"/>
<path d="M159.249 633.893C160.793 633.893 162.074 632.673 162.135 631.117C162.234 628.604 164.266 569.267 139.014 543.002C131.203 534.877 121.569 530.758 110.38 530.758C99.1912 530.758 89.5571 534.877 81.7461 543.002C56.4951 569.266 58.5271 628.603 58.6261 631.117C58.6881 632.711 60.0262 633.942 61.6272 633.891C63.2222 633.828 64.4641 632.484 64.4021 630.89C64.3791 630.298 62.3702 571.488 85.9182 547.004C92.5952 540.06 100.825 536.54 110.379 536.54C119.936 536.54 128.168 540.063 134.846 547.009C158.41 571.519 156.382 630.299 156.358 630.889C156.295 632.484 157.538 633.828 159.132 633.891C159.172 633.892 159.211 633.893 159.249 633.893Z" fill="#001557"/>
<path d="M44.3141 761.003H176.448C186.496 761.003 194.641 752.857 194.641 742.81V590.606H26.1201V742.81C26.1201 752.857 34.2661 761.003 44.3141 761.003Z" fill="#FF547C"/>
<path d="M18.222 761.003H150.355C160.403 761.003 168.549 752.857 168.549 742.809V590.606H0.0280762V742.81C0.0280762 752.857 8.17405 761.003 18.222 761.003Z" fill="#FF8CA8"/>
<path d="M127.126 631.003C127.126 634.333 129.826 637.033 133.156 637.033C136.486 637.033 139.186 634.333 139.186 631.003C139.186 627.673 136.486 624.973 133.156 624.973C129.825 624.972 127.126 627.672 127.126 631.003Z" fill="#AB181B"/>
<path d="M41.4521 631.003C41.4521 634.333 38.7521 637.033 35.4221 637.033C32.0921 637.033 29.3921 634.333 29.3921 631.003C29.3921 627.673 32.0921 624.973 35.4221 624.973C38.7521 624.972 41.4521 627.672 41.4521 631.003Z" fill="#AB181B"/>
<path d="M133.158 633.893C134.701 633.893 135.983 632.673 136.044 631.117C136.143 628.604 138.175 569.267 112.923 543.002C105.112 534.877 95.4781 530.758 84.2891 530.758C73.1001 530.758 63.4661 534.877 55.6551 543.002C30.4031 569.266 32.4351 628.603 32.5341 631.117C32.5961 632.711 33.9741 633.942 35.5351 633.891C37.1301 633.828 38.3721 632.484 38.3101 630.89C38.2871 630.298 36.2791 571.488 59.8271 547.004C66.5051 540.06 74.7351 536.54 84.2891 536.54C93.8451 536.54 102.077 540.063 108.756 547.009C132.319 571.519 130.292 630.299 130.268 630.889C130.205 632.484 131.448 633.828 133.042 633.891C133.081 633.892 133.119 633.893 133.158 633.893Z" fill="#002AAF"/>
<path d="M746.537 792.351C818.141 792.351 876.187 734.305 876.187 662.701C876.187 591.097 818.141 533.051 746.537 533.051C674.933 533.051 616.887 591.097 616.887 662.701C616.887 734.305 674.933 792.351 746.537 792.351Z" fill="#001557"/>
<path d="M746.537 782.017C812.433 782.017 865.853 728.597 865.853 662.701C865.853 596.805 812.433 543.385 746.537 543.385C680.641 543.385 627.221 596.805 627.221 662.701C627.221 728.597 680.641 782.017 746.537 782.017Z" fill="#B9D3F6"/>
<path d="M774.638 778.68C777.342 778.027 780.01 777.285 782.638 776.452V733.872H842.308C844.234 731.285 846.052 728.614 847.767 725.872H774.638V778.68ZM728.683 684.065L775.651 637.097H863.089C862.498 634.395 861.817 631.727 861.046 629.097H777.219V547.376C774.587 546.678 771.919 546.068 769.219 545.549V594.998C732.287 594.268 728.649 581.064 728.43 580.057L728.367 576.452H664.094C661.43 578.999 658.884 581.669 656.464 584.452H721.456C724.125 590.692 733.851 602.332 769.219 603.001V629.098H632.027C631.256 631.728 630.575 634.396 629.984 637.098H764.336L717.368 684.066H629.131C629.619 686.766 630.2 689.433 630.866 692.066H714.251V728.195H646.796C648.603 730.942 650.516 733.613 652.537 736.195H714.25V777.594C716.881 778.332 719.549 778.983 722.25 779.542V692.066H862.206C862.873 689.433 863.453 686.766 863.941 684.066L728.683 684.065Z" fill="white"/>
<path d="M748.73 606.58C748.541 605.142 748.41 603.687 748.41 602.198C748.41 587.308 771.633 568.839 771.633 568.839H781.769C800.193 568.839 815.128 583.774 815.128 602.198C815.128 603.687 814.997 605.143 814.807 606.581L814.832 606.584C812.327 636.005 794.865 669.998 786.379 685.017C785.355 686.829 783.53 687.721 781.712 687.702H771.749C771.749 687.702 750.753 630.615 748.707 606.584L748.73 606.58Z" fill="#91310D"/>
<path d="M738.274 602.198C738.274 583.774 753.209 568.839 771.633 568.839C790.057 568.839 804.992 583.774 804.992 602.198C804.992 603.687 804.861 605.143 804.672 606.581L804.696 606.584C802.191 636.005 784.729 669.998 776.243 685.017C774.217 688.602 769.049 688.602 767.024 685.017C758.537 669.998 741.076 636.005 738.571 606.584L738.595 606.581C738.405 605.142 738.274 603.687 738.274 602.198Z" fill="#FF5617"/>
<path d="M755.452 602.198C755.452 611.134 762.697 618.379 771.632 618.379C780.568 618.379 787.813 611.134 787.813 602.198C787.813 593.262 780.568 586.017 771.632 586.017C762.696 586.017 755.452 593.261 755.452 602.198Z" fill="white"/>
</svg>
