<svg width="20" height="20" viewBox="0 0 20 20" fill="none" xmlns="http://www.w3.org/2000/svg">
<path d="M10 0.15625C5.77832 0.15625 2.34375 3.59082 2.34375 7.8125C2.34375 9.86328 3.58621 12.4969 6.0366 15.6398C7.15924 17.076 8.375 18.4369 9.67602 19.7137C9.76325 19.7972 9.8793 19.8437 10 19.8437C10.1207 19.8437 10.2368 19.7972 10.324 19.7137C11.625 18.4369 12.8408 17.076 13.9634 15.6398C16.4138 12.4969 17.6562 9.86328 17.6562 7.8125C17.6562 3.59082 14.2217 0.15625 10 0.15625ZM10 13.2812C6.98438 13.2812 4.53125 10.8281 4.53125 7.8125C4.53125 4.79688 6.98438 2.34375 10 2.34375C13.0156 2.34375 15.4688 4.79688 15.4688 7.8125C15.4688 10.8281 13.0156 13.2812 10 13.2812Z" fill="black"/>
<path d="M13.7528 7.15317L10.3153 4.02817C10.229 3.94973 10.1166 3.90627 9.99999 3.90627C9.88339 3.90627 9.77096 3.94973 9.68468 4.02817L6.24718 7.15317C6.1671 7.22599 6.11467 7.32428 6.09879 7.43135C6.08292 7.53843 6.10457 7.6477 6.16007 7.74063C6.20386 7.81138 6.26524 7.86958 6.33822 7.90956C6.41119 7.94954 6.49328 7.96993 6.57648 7.96875H7.03124V10.9375C7.03124 11.0618 7.08063 11.1811 7.16854 11.269C7.25645 11.3569 7.37567 11.4063 7.49999 11.4063H8.59374C8.71806 11.4063 8.83729 11.3569 8.9252 11.269C9.01311 11.1811 9.06249 11.0618 9.06249 10.9375V9.21875C9.06249 9.09443 9.11188 8.9752 9.19979 8.8873C9.2877 8.79939 9.40692 8.75 9.53124 8.75H10.4687C10.5931 8.75 10.7123 8.79939 10.8002 8.8873C10.8881 8.9752 10.9375 9.09443 10.9375 9.21875V10.9375C10.9375 11.0618 10.9869 11.1811 11.0748 11.269C11.1627 11.3569 11.2819 11.4063 11.4062 11.4063H12.5C12.6243 11.4063 12.7435 11.3569 12.8315 11.269C12.9194 11.1811 12.9687 11.0618 12.9687 10.9375V7.96875H13.4235C13.5067 7.96993 13.5888 7.94954 13.6618 7.90956C13.7347 7.86958 13.7961 7.81138 13.8399 7.74063C13.8954 7.6477 13.9171 7.53843 13.9012 7.43135C13.8853 7.32428 13.8329 7.22599 13.7528 7.15317Z" fill="black"/>
</svg>
