<svg width="20" height="20" viewBox="0 0 20 20" fill="none" xmlns="http://www.w3.org/2000/svg">
<g clip-path="url(#clip0_2_57)">
<path d="M19.0826 18.1775H0.90892C0.66786 18.1775 0.436674 18.2732 0.266219 18.4437C0.0957636 18.6142 3.0252e-06 18.8453 3.0252e-06 19.0864C3.0252e-06 19.3275 0.0957636 19.5586 0.266219 19.7291C0.436674 19.8996 0.66786 19.9953 0.90892 19.9953H19.0822C19.3232 19.9954 19.5544 19.8997 19.7249 19.7293C19.8954 19.5588 19.9912 19.3277 19.9913 19.0866C19.9913 18.8456 19.8956 18.6143 19.7252 18.4439C19.5548 18.2734 19.3236 18.1775 19.0826 18.1775ZM2.04464 15.8146C1.80352 15.8146 1.57228 15.9103 1.40179 16.0808C1.23129 16.2513 1.13551 16.4826 1.13551 16.7237C1.13551 16.9648 1.23129 17.196 1.40179 17.3665C1.57228 17.537 1.80352 17.6328 2.04464 17.6328H17.9464C18.1875 17.6328 18.4188 17.537 18.5893 17.3665C18.7598 17.196 18.8556 16.9648 18.8556 16.7237C18.8556 16.4826 18.7598 16.2513 18.5893 16.0808C18.4188 15.9103 18.1875 15.8146 17.9464 15.8146H17.7196V7.63601H17.9464C18.0668 7.63601 18.1823 7.58817 18.2675 7.50302C18.3526 7.41788 18.4005 7.30239 18.4005 7.18197C18.4005 7.06156 18.3526 6.94607 18.2675 6.86093C18.1823 6.77578 18.0668 6.72794 17.9464 6.72794H2.04464C1.92422 6.72794 1.80874 6.77578 1.72359 6.86093C1.63844 6.94607 1.59061 7.06156 1.59061 7.18197C1.59061 7.30239 1.63844 7.41788 1.72359 7.50302C1.80874 7.58817 1.92422 7.63601 2.04464 7.63601H2.27187V15.8141L2.04464 15.8146ZM15.9018 7.63601V15.8141H13.1759V7.63601H15.9018ZM11.3581 7.63601V15.8141H8.63216V7.63601H11.3581ZM4.08885 7.63601H6.81475V15.8141H4.08885V7.63601ZM0.90892 5.91094H19.0911C19.3067 5.91171 19.5156 5.83578 19.6803 5.69671C19.8451 5.55765 19.955 5.36452 19.9905 5.15184C20.0259 4.93917 19.9846 4.72082 19.8738 4.53582C19.7631 4.35083 19.5902 4.21125 19.386 4.14204L10.3691 0.0846795C10.2519 0.0320825 10.1249 0.00489044 9.99639 0.00489044C9.8679 0.00489044 9.74086 0.0320825 9.62363 0.0846795L0.536162 4.17353C0.346373 4.25866 0.191546 4.40634 0.0975465 4.5919C0.00354721 4.77745 -0.0239305 4.98965 0.0197041 5.19303C0.0633387 5.3964 0.175443 5.57865 0.337287 5.70932C0.499131 5.83998 0.700913 5.91115 0.90892 5.91094Z" fill="black"/>
</g>
<defs>
<clipPath id="clip0_2_57">
<rect width="20" height="20" fill="white"/>
</clipPath>
</defs>
</svg>
