<svg width="20" height="20" viewBox="0 0 20 20" fill="none" xmlns="http://www.w3.org/2000/svg">
<g clip-path="url(#clip0_2_16)">
<path fill-rule="evenodd" clip-rule="evenodd" d="M9.96804 0.303048C11.7709 0.323621 13.3996 0.76672 14.8542 1.63234C16.2914 2.48067 17.4869 3.68352 18.3265 5.12586C19.1868 6.58917 19.6272 8.22775 19.6478 10.0416C19.5967 12.5234 18.8139 14.643 17.2994 16.4006C15.785 18.1582 13.8453 19.2455 11.8375 19.6623V12.7043H13.7358L14.1651 9.96992H11.2906V8.17899C11.2746 7.80771 11.392 7.44298 11.6216 7.15074C11.8515 6.8577 12.2563 6.70367 12.836 6.68867H14.5718V4.29344C14.5469 4.28542 14.3106 4.25372 13.8628 4.19836C13.3551 4.13894 12.8444 4.1072 12.3332 4.10328C11.176 4.10862 10.2609 4.43503 9.58781 5.0825C8.91463 5.72977 8.57076 6.66622 8.5562 7.89188V9.96992H6.3687V12.7043H8.5562V19.6624C6.09077 19.2456 4.15113 18.1582 2.63667 16.4007C1.12222 14.6431 0.339485 12.5234 0.288391 10.0416C0.308834 8.22767 0.749251 6.58909 1.60964 5.12586C2.44919 3.6835 3.64474 2.48064 5.08195 1.63231C6.53648 0.766863 8.16518 0.323803 9.96804 0.303048Z" fill="black"/>
</g>
<defs>
<clipPath id="clip0_2_16">
<rect width="20" height="20" fill="white"/>
</clipPath>
</defs>
</svg>
