<svg width="23" height="17" viewBox="0 0 23 17" fill="none" xmlns="http://www.w3.org/2000/svg">
<path d="M20.0694 0H2.59728C1.16454 0 0 1.16454 0 2.59728V14.4027C0 15.8355 1.16454 17 2.59728 17H20.0694C21.5021 17 22.6667 15.8355 22.6667 14.4027V2.59728C22.6667 1.16454 21.5021 0 20.0694 0ZM7.08333 3.77772C8.38481 3.77772 9.44438 4.83747 9.44438 6.13895C9.44438 7.44024 8.38481 8.5 7.08333 8.5C5.78186 8.5 4.72228 7.44024 4.72228 6.13895C4.72228 4.83747 5.78186 3.77772 7.08333 3.77772ZM11.3333 12.5139C11.3333 12.9049 11.016 13.2223 10.625 13.2223H3.54167C3.15067 13.2223 2.83333 12.9049 2.83333 12.5139V12.0417C2.83333 10.6089 3.99788 9.44439 5.43061 9.44439H8.73605C10.1688 9.44439 11.3333 10.6089 11.3333 12.0417V12.5139ZM19.125 13.2223H13.9306C13.5396 13.2223 13.2223 12.9049 13.2223 12.5139C13.2223 12.1229 13.5396 11.8056 13.9306 11.8056H19.125C19.516 11.8056 19.8333 12.1229 19.8333 12.5139C19.8333 12.9049 19.516 13.2223 19.125 13.2223ZM19.125 9.44439H13.9306C13.5396 9.44439 13.2223 9.12705 13.2223 8.73605C13.2223 8.34505 13.5396 8.02772 13.9306 8.02772H19.125C19.516 8.02772 19.8333 8.34505 19.8333 8.73605C19.8333 9.12705 19.516 9.44439 19.125 9.44439ZM19.125 5.66667H13.9306C13.5396 5.66667 13.2223 5.34933 13.2223 4.95833C13.2223 4.56733 13.5396 4.25 13.9306 4.25H19.125C19.516 4.25 19.8333 4.56733 19.8333 4.95833C19.8333 5.34933 19.516 5.66667 19.125 5.66667Z" fill="black"/>
</svg>
