<svg width="20" height="20" viewBox="0 0 20 20" fill="none" xmlns="http://www.w3.org/2000/svg">
<g clip-path="url(#clip0_2_10)">
<path d="M19.5925 8.625C19.2432 6.07883 17.8967 3.77573 15.8492 2.22234C13.8018 0.668957 11.2212 -0.00746947 8.675 0.34187C6.12884 0.69121 3.82573 2.0377 2.27235 4.08513C0.71896 6.13256 0.0425336 8.71321 0.391873 11.2594C0.679684 13.3668 1.64812 15.3224 3.14979 16.8287C4.65145 18.335 6.60413 19.3095 8.71062 19.6037C9.14166 19.6602 9.57591 19.6886 10.0106 19.6887C11.767 19.6916 13.4904 19.2123 14.9931 18.3031C15.2061 18.1748 15.3594 17.9672 15.4193 17.7258C15.4792 17.4845 15.4408 17.2292 15.3125 17.0162C15.1842 16.8032 14.9765 16.6499 14.7352 16.59C14.4939 16.5301 14.2386 16.5686 14.0256 16.6969C12.956 17.3389 11.7482 17.7154 10.5033 17.795C9.25838 17.8745 8.01249 17.6548 6.86986 17.1542C5.72724 16.6536 4.72111 15.8867 3.93564 14.9175C3.15016 13.9484 2.60818 12.8052 2.35504 11.5837C2.1019 10.3622 2.14495 9.09782 2.4806 7.89635C2.81625 6.69487 3.43473 5.59124 4.2843 4.67778C5.13388 3.76432 6.18985 3.06758 7.36388 2.64586C8.53791 2.22413 9.79586 2.08968 11.0325 2.25375C12.1811 2.40647 13.2814 2.81279 14.2536 3.44327C15.2258 4.07375 16.0456 4.91259 16.6536 5.89904C17.2616 6.88548 17.6425 7.99481 17.7688 9.14665C17.8951 10.2985 17.7635 11.464 17.3837 12.5587C17.2852 12.822 17.1071 13.048 16.8743 13.2055C16.6415 13.363 16.3654 13.444 16.0844 13.4375C15.7141 13.437 15.359 13.2897 15.0972 13.0278C14.8353 12.766 14.688 12.4109 14.6875 12.0406V6.25C14.6875 6.00135 14.5887 5.7629 14.4129 5.58708C14.2371 5.41127 13.9986 5.3125 13.75 5.3125C13.5014 5.3125 13.2629 5.41127 13.0871 5.58708C12.9113 5.7629 12.8125 6.00135 12.8125 6.25V6.25875C12.1018 5.72233 11.253 5.39945 10.3654 5.32787C9.47791 5.25629 8.58834 5.43899 7.80085 5.85457C7.01336 6.27016 6.36052 6.90144 5.91875 7.67455C5.47698 8.44765 5.26454 9.33059 5.3063 10.22C5.34806 11.1095 5.64228 11.9686 6.15455 12.6969C6.66681 13.4253 7.37592 13.9926 8.19888 14.3326C9.02185 14.6725 9.92462 14.7711 10.8016 14.6167C11.6785 14.4623 12.4933 14.0613 13.1506 13.4606C13.4162 14.0138 13.8323 14.4809 14.3512 14.8085C14.8701 15.136 15.4708 15.3107 16.0844 15.3125C16.7552 15.319 17.4113 15.1164 17.9617 14.7329C18.5121 14.3494 18.9294 13.804 19.1556 13.1725C19.6609 11.713 19.8106 10.154 19.5925 8.625ZM10 12.8125C9.44374 12.8125 8.89997 12.6475 8.43746 12.3385C7.97494 12.0295 7.61446 11.5902 7.40159 11.0763C7.18872 10.5624 7.13302 9.99687 7.24154 9.4513C7.35006 8.90573 7.61793 8.40459 8.01126 8.01126C8.4046 7.61792 8.90573 7.35006 9.45131 7.24154C9.99688 7.13302 10.5624 7.18871 11.0763 7.40158C11.5902 7.61446 12.0295 7.97494 12.3385 8.43745C12.6475 8.89997 12.8125 9.44374 12.8125 10C12.8117 10.7457 12.5151 11.4606 11.9878 11.9878C11.4606 12.5151 10.7457 12.8117 10 12.8125Z" fill="black"/>
</g>
<defs>
<clipPath id="clip0_2_10">
<rect width="20" height="20" fill="white"/>
</clipPath>
</defs>
</svg>
