<svg width="20" height="20" viewBox="0 0 20 20" fill="none" xmlns="http://www.w3.org/2000/svg">
<path d="M11.3298 17.4227H9.33934C9.23574 17.4227 9.13638 17.4639 9.06313 17.5371C8.98987 17.6104 8.94872 17.7097 8.94872 17.8133C8.94872 17.9169 8.98987 18.0163 9.06313 18.0895C9.13638 18.1628 9.23574 18.2039 9.33934 18.2039H11.3298C11.4334 18.2039 11.5328 18.1628 11.606 18.0895C11.6793 18.0163 11.7204 17.9169 11.7204 17.8133C11.7204 17.7097 11.6793 17.6104 11.606 17.5371C11.5328 17.4639 11.4334 17.4227 11.3298 17.4227Z" fill="black"/>
<path d="M18.125 6.48438C17.3374 6.48438 16.6566 6.7048 16.1563 7.12176C16.1077 7.16238 16.0608 7.20496 16.0156 7.24937V1.25C16.0148 0.98088 15.9076 0.723007 15.7173 0.53271C15.527 0.342413 15.2691 0.235158 15 0.234375H5.62501C5.35589 0.235158 5.09801 0.342413 4.90772 0.53271C4.71742 0.723007 4.61016 0.98088 4.60938 1.25V2.28906L4.56098 2.24066C4.25329 1.93297 3.83597 1.76011 3.40083 1.76011C2.96568 1.76011 2.54836 1.93297 2.24067 2.24066C1.93298 2.54836 1.76012 2.96568 1.76012 3.40082C1.76012 3.83596 1.93298 4.25328 2.24067 4.56098L3.93106 6.25137C3.65746 6.33116 3.40936 6.48081 3.21116 6.68561C3.01297 6.8904 2.87152 7.14327 2.80073 7.41933C2.72994 7.6954 2.73225 7.98513 2.80744 8.26003C2.88263 8.53493 3.0281 8.78551 3.22954 8.98711L4.1911 9.94867C3.88579 9.98582 3.59709 10.1081 3.35792 10.3014C3.11876 10.4948 2.93877 10.7515 2.83851 11.0423C2.73824 11.333 2.72174 11.6461 2.79088 11.9458C2.86002 12.2455 3.01203 12.5197 3.22954 12.7371L3.87852 13.3862C3.57322 13.4234 3.28451 13.5456 3.04534 13.739C2.80618 13.9323 2.62619 14.189 2.52593 14.4798C2.42567 14.7705 2.40916 15.0836 2.47831 15.3833C2.54745 15.683 2.69945 15.9572 2.91696 16.1746L4.60938 17.8672V18.75C4.60968 19.0193 4.71678 19.2774 4.90718 19.4678C5.09758 19.6582 5.35574 19.7653 5.62501 19.7656H13.125C13.2286 19.7656 13.328 19.7245 13.4012 19.6512C13.4745 19.578 13.5156 19.4786 13.5156 19.375V15.625C13.5164 15.2977 13.593 14.975 13.7394 14.6822C13.8858 14.3894 14.098 14.1345 14.3594 13.9375L15.8594 12.8125C15.9077 12.7759 15.9469 12.7287 15.974 12.6745C16.0011 12.6203 16.0153 12.5606 16.0156 12.5V9.375C16.0156 7.81926 16.9652 7.38535 17.7344 7.28906V19.375C17.7344 19.4786 17.7755 19.578 17.8488 19.6512C17.922 19.7245 18.0214 19.7656 18.125 19.7656C18.2286 19.7656 18.328 19.7245 18.4012 19.6512C18.4745 19.578 18.5156 19.4786 18.5156 19.375V6.875C18.5156 6.7714 18.4745 6.67204 18.4012 6.59879C18.328 6.52553 18.2286 6.48438 18.125 6.48438ZM5.62501 1.01562H15C15.0621 1.01569 15.1217 1.0404 15.1657 1.08434C15.2096 1.12828 15.2343 1.18786 15.2344 1.25V2.42016H5.39063V1.25C5.39069 1.18786 5.4154 1.12828 5.45935 1.08434C5.50329 1.0404 5.56286 1.01569 5.62501 1.01562ZM2.54122 3.40078C2.5334 2.64406 3.47915 2.25293 4.00856 2.79301L4.60938 3.39387V5.82492L2.79297 4.00852C2.71291 3.9289 2.64943 3.83419 2.60622 3.72987C2.563 3.62555 2.54091 3.5137 2.54122 3.40078ZM3.78188 7.21937C4.1018 6.88598 4.67735 6.88598 4.99723 7.21937L6.76501 8.98715C7.54129 9.82086 6.38016 10.9791 5.54965 10.2025L3.78188 8.43473C3.62097 8.27343 3.53061 8.05489 3.53061 7.82705C3.53061 7.59921 3.62097 7.38068 3.78188 7.21937ZM7.31743 8.43473L6.89286 8.01012C6.97365 7.23348 7.32236 6.50922 7.87907 5.96172C8.43579 5.41423 9.16578 5.07767 9.94365 5.00986C10.7215 4.94205 11.4987 5.14721 12.1418 5.59012C12.7849 6.03302 13.2536 6.68602 13.4676 7.43696C13.6815 8.1879 13.6274 8.9899 13.3143 9.70523C13.0013 10.4206 12.4489 11.0046 11.7521 11.3569C11.0553 11.7093 10.2576 11.808 9.49588 11.6362C8.7342 11.4643 8.05613 11.0326 7.57813 10.4152C7.75826 10.1023 7.83033 9.73877 7.78321 9.38081C7.73608 9.02284 7.57239 8.69036 7.31743 8.43473ZM3.78188 10.9694C4.1018 10.636 4.67735 10.636 4.99723 10.9694L6.76501 12.7371C7.54129 13.5709 6.38016 14.7291 5.54965 13.9525L3.78188 12.1847C3.62097 12.0234 3.53061 11.8049 3.53061 11.5771C3.53061 11.3492 3.62097 11.1307 3.78188 10.9694ZM3.46938 14.4069C3.7893 14.0735 4.36485 14.0735 4.68473 14.4069L6.45251 16.1746C7.22879 17.0084 6.06766 18.1666 5.23715 17.39L3.46938 15.6222C3.30847 15.4609 3.21811 15.2424 3.21811 15.0146C3.21811 14.7867 3.30847 14.5682 3.46938 14.4069ZM5.39063 18.75V18.3594C5.53831 18.4017 5.69118 18.4232 5.84481 18.4232C6.07205 18.4233 6.29684 18.3761 6.50488 18.2847C6.71292 18.1932 6.89968 18.0595 7.0533 17.8921C7.20692 17.7246 7.32403 17.5271 7.39722 17.3119C7.4704 17.0968 7.49805 16.8688 7.4784 16.6424H12.7344V18.9844H5.62501C5.56286 18.9843 5.50329 18.9596 5.45935 18.9157C5.4154 18.8717 5.39069 18.8121 5.39063 18.75ZM13.8906 13.3125C13.5324 13.5825 13.2416 13.9318 13.041 14.333C12.8404 14.7342 12.7354 15.1764 12.7344 15.625V15.8609H7.202C7.14398 15.7753 7.078 15.6954 7.00493 15.6222L6.35586 14.9732C6.66117 14.936 6.94988 14.8138 7.18904 14.6204C7.42821 14.427 7.60819 14.1703 7.70846 13.8796C7.80872 13.5888 7.82522 13.2757 7.75608 12.9761C7.68694 12.6764 7.53494 12.4022 7.31743 12.1847L6.35586 11.2232C6.5962 11.1946 6.8271 11.1126 7.03165 10.9832C7.62203 11.7029 8.43779 12.2027 9.34718 12.4017C10.2566 12.6006 11.2065 12.4873 12.0435 12.0799C12.8805 11.6725 13.5558 10.9948 13.9602 10.1564C14.3647 9.31792 14.4747 8.36762 14.2725 7.45894C14.0703 6.55026 13.5677 5.73627 12.8459 5.14843C12.124 4.56059 11.2251 4.23322 10.2943 4.2192C9.36354 4.20518 8.45519 4.50533 7.71599 5.07116C6.97679 5.63699 6.44991 6.43548 6.22043 7.33766C6.22043 7.33766 5.44602 6.57031 5.39063 6.52734V3.20141H15.2344V12.3047L13.8906 13.3125Z" fill="black"/>
<path d="M9.88282 8.75H10.5469C10.6936 8.75517 10.8327 8.81711 10.9347 8.92277C11.0367 9.02842 11.0937 9.16955 11.0937 9.31641C11.0937 9.46326 11.0367 9.60439 10.9347 9.71004C10.8327 9.8157 10.6936 9.87764 10.5469 9.88281H9.56215C9.42571 9.88594 9.32778 9.75344 9.34778 9.62316C9.34963 9.51956 9.31026 9.41947 9.23831 9.3449C9.16637 9.27033 9.06775 9.2274 8.96415 9.22555C8.86055 9.22369 8.76045 9.26307 8.68588 9.33501C8.61132 9.40696 8.56838 9.50558 8.56653 9.60918L8.56579 9.64965C8.5634 9.782 8.58741 9.9135 8.63641 10.0365C8.68541 10.1594 8.75842 10.2714 8.85118 10.3659C8.94394 10.4603 9.05459 10.5353 9.17666 10.5865C9.29873 10.6377 9.42978 10.6641 9.56215 10.6641H9.84375V10.8984C9.84375 11.002 9.88491 11.1014 9.95817 11.1747C10.0314 11.2479 10.1308 11.2891 10.2344 11.2891C10.338 11.2891 10.4373 11.2479 10.5106 11.1747C10.5839 11.1014 10.625 11.002 10.625 10.8984V10.6616C10.9715 10.6364 11.2948 10.4784 11.5276 10.2206C11.7605 9.96275 11.8848 9.62502 11.8747 9.27779C11.8647 8.93055 11.721 8.6006 11.4736 8.35672C11.2262 8.11285 10.8942 7.97387 10.5469 7.96875H9.88282C9.73778 7.96875 9.59868 7.91113 9.49612 7.80857C9.39356 7.70601 9.33594 7.56692 9.33594 7.42188C9.33594 7.27683 9.39356 7.13774 9.49612 7.03518C9.59868 6.93262 9.73778 6.875 9.88282 6.875H10.852C10.9896 6.88648 11.0612 6.96128 11.0668 7.09938C11.0646 7.15063 11.0725 7.20181 11.0901 7.25001C11.1077 7.2982 11.1346 7.34246 11.1693 7.38026C11.2393 7.4566 11.3368 7.50199 11.4403 7.50645C11.5438 7.5109 11.6449 7.47405 11.7212 7.40401C11.7975 7.33397 11.8429 7.23648 11.8474 7.13297C11.8532 6.99865 11.8317 6.86454 11.7843 6.73874C11.7369 6.61293 11.6645 6.49802 11.5715 6.40093C11.4785 6.30383 11.3668 6.22657 11.2431 6.17378C11.1195 6.12098 10.9864 6.09376 10.852 6.09375H10.625V5.85938C10.625 5.75577 10.5839 5.65642 10.5106 5.58316C10.4373 5.5099 10.338 5.46875 10.2344 5.46875C10.1308 5.46875 10.0314 5.5099 9.95817 5.58316C9.88491 5.65642 9.84375 5.75577 9.84375 5.85938V6.09473C9.49517 6.10508 9.16465 6.25215 8.92359 6.50417C8.68253 6.75618 8.55028 7.0929 8.55541 7.4416C8.56054 7.79031 8.70264 8.12299 8.95101 8.36781C9.19937 8.61262 9.53408 8.7499 9.88282 8.75Z" fill="black"/>
</svg>
