<svg width="20" height="21" viewBox="0 0 20 21" fill="none" xmlns="http://www.w3.org/2000/svg">
<path d="M12 16.9999C12.2653 16.9999 12.5196 16.8945 12.7071 16.707C12.8947 16.5195 13 16.2651 13 15.9999V13.9999C13 13.7347 12.8947 13.4803 12.7071 13.2928C12.5196 13.1053 12.2653 12.9999 12 12.9999C11.7348 12.9999 11.4805 13.1053 11.2929 13.2928C11.1054 13.4803 11 13.7347 11 13.9999V15.9999C11 16.2651 11.1054 16.5195 11.2929 16.707C11.4805 16.8945 11.7348 16.9999 12 16.9999ZM8.00004 16.9999C8.26525 16.9999 8.51961 16.8945 8.70714 16.707C8.89468 16.5195 9.00004 16.2651 9.00004 15.9999V13.9999C9.00004 13.7347 8.89468 13.4803 8.70714 13.2928C8.51961 13.1053 8.26525 12.9999 8.00004 12.9999C7.73482 12.9999 7.48047 13.1053 7.29293 13.2928C7.10539 13.4803 7.00004 13.7347 7.00004 13.9999V15.9999C7.00004 16.2651 7.10539 16.5195 7.29293 16.707C7.48047 16.8945 7.73482 16.9999 8.00004 16.9999ZM17 4.99991H15.62L13.89 1.5499C13.8372 1.42296 13.7587 1.30828 13.6595 1.21303C13.5603 1.11779 13.4426 1.04402 13.3136 0.996347C13.1846 0.948672 13.0472 0.928113 12.9099 0.935953C12.7726 0.943793 12.6384 0.979865 12.5157 1.04191C12.3929 1.10396 12.2843 1.19065 12.1966 1.29657C12.1089 1.40249 12.044 1.52536 12.006 1.6575C11.9679 1.78964 11.9575 1.92821 11.9754 2.06455C11.9933 2.20089 12.0391 2.33208 12.11 2.44991L13.38 4.99991H6.62004L7.89004 2.44991C7.9871 2.21681 7.9924 1.95563 7.90486 1.71879C7.81732 1.48196 7.64343 1.287 7.4181 1.17307C7.19277 1.05914 6.93268 1.03467 6.69005 1.10456C6.44742 1.17446 6.24022 1.33356 6.11004 1.5499L4.38004 4.99991H3.00004C2.29323 5.01066 1.61291 5.27065 1.07909 5.73404C0.545259 6.19742 0.192211 6.83443 0.0822073 7.53271C-0.0277959 8.23099 0.112313 8.94569 0.477823 9.55075C0.843332 10.1558 1.41076 10.6124 2.08004 10.8399L2.82004 18.2999C2.89466 19.0425 3.24338 19.7306 3.79811 20.2298C4.35284 20.7291 5.07374 21.0036 5.82004 20.9999H14.2C14.9463 21.0036 15.6672 20.7291 16.222 20.2298C16.7767 19.7306 17.1254 19.0425 17.2 18.2999L17.94 10.8399C18.6108 10.6117 19.1791 10.1535 19.5443 9.54639C19.9096 8.9393 20.0482 8.22254 19.9356 7.52305C19.823 6.82356 19.4665 6.18649 18.9292 5.72468C18.3919 5.26287 17.7085 5.00612 17 4.99991ZM15.19 18.0999C15.1652 18.3474 15.0489 18.5768 14.864 18.7432C14.6791 18.9096 14.4388 19.0012 14.19 18.9999H5.81004C5.56127 19.0012 5.32097 18.9096 5.13606 18.7432C4.95115 18.5768 4.83491 18.3474 4.81004 18.0999L4.10004 10.9999H15.9L15.19 18.0999ZM17 8.9999H3.00004C2.73482 8.9999 2.48047 8.89455 2.29293 8.70701C2.10539 8.51948 2.00004 8.26512 2.00004 7.99991C2.00004 7.73469 2.10539 7.48033 2.29293 7.2928C2.48047 7.10526 2.73482 6.99991 3.00004 6.99991H17C17.2653 6.99991 17.5196 7.10526 17.7071 7.2928C17.8947 7.48033 18 7.73469 18 7.99991C18 8.26512 17.8947 8.51948 17.7071 8.70701C17.5196 8.89455 17.2653 8.9999 17 8.9999Z" fill="black"/>
</svg>
