<svg width="25" height="22" viewBox="0 0 25 22" fill="none" xmlns="http://www.w3.org/2000/svg">
<path d="M15.4785 0H2.19727C0.981397 0 0 0.981397 0 2.19727V10.9863C0 12.2021 0.981397 13.1836 2.19727 13.1836H2.92969V15.3809C2.92969 15.91 3.47759 16.2932 4.01367 16.0254C4.02832 16.0107 4.05767 16.0107 4.07231 15.996C8.10142 13.2941 7.19844 13.8966 8.10063 13.3007C8.21777 13.2275 8.34961 13.1836 8.49609 13.1836H15.4785C16.6944 13.1836 17.6758 12.2021 17.6758 10.9863V2.19727C17.6758 0.981397 16.6944 0 15.4785 0ZM9.61914 8.78906H3.66211C2.69663 8.78906 2.69268 7.32422 3.66211 7.32422H9.61914C10.5846 7.32422 10.5886 8.78906 9.61914 8.78906ZM14.0137 5.85938H3.66211C2.69663 5.85938 2.69268 4.39453 3.66211 4.39453H14.0137C14.9792 4.39453 14.9831 5.85938 14.0137 5.85938Z" fill="#3D42EC"/>
<path d="M22.8027 5.85938H19.1406V10.9863C19.1406 13.0078 17.5 14.6484 15.4785 14.6484H8.71582L7.32422 15.5713V16.8457C7.32422 18.0615 8.30562 19.043 9.52148 19.043H16.7236L20.9277 21.8554C21.5015 22.174 22.0703 21.7866 22.0703 21.2402V19.043H22.8027C24.0186 19.043 25 18.0615 25 16.8457V8.05664C25 6.84082 24.0186 5.85938 22.8027 5.85938Z" fill="#6FABF6"/>
</svg>
