<svg width="17" height="11" viewBox="0 0 17 11" fill="none" xmlns="http://www.w3.org/2000/svg">
<path d="M8.075 10.0937C2.01875 10.0937 0 5.04687 0 5.04687C0 5.04687 2.01875 0 8.075 0C14.1312 0 16.15 5.04687 16.15 5.04687C16.15 5.04687 14.1312 10.0937 8.075 10.0937ZM8.075 2.01875C6.40247 2.01875 5.04687 3.37434 5.04687 5.04687C5.04687 6.71941 6.40247 8.075 8.075 8.075C9.74753 8.075 11.1031 6.71941 11.1031 5.04687C11.1031 3.37434 9.74753 2.01875 8.075 2.01875ZM8.075 7.06562C6.96065 7.06562 6.05625 6.16122 6.05625 5.04687H8.075L6.64774 3.61962C6.83483 3.4317 7.05726 3.28268 7.30223 3.18116C7.54719 3.07964 7.80983 3.02763 8.075 3.02812C9.18935 3.02812 10.0937 3.93252 10.0937 5.04687C10.0937 6.16122 9.18935 7.06562 8.075 7.06562Z" fill="black"/>
</svg>
