<svg width="18" height="17" viewBox="0 0 18 17" fill="none" xmlns="http://www.w3.org/2000/svg">
<path d="M15.8642 0.267974C15.7127 0.0963904 15.5074 0 15.2933 0C15.0791 0 14.8738 0.0963904 14.7224 0.267974L2.10355 14.5725C2.02642 14.6569 1.96491 14.7579 1.92259 14.8696C1.88027 14.9812 1.85799 15.1013 1.85706 15.2229C1.85613 15.3444 1.87656 15.4649 1.91716 15.5774C1.95776 15.6899 2.01772 15.7921 2.09354 15.878C2.16936 15.9639 2.25952 16.0319 2.35875 16.0779C2.45799 16.1239 2.56432 16.1471 2.67154 16.146C2.77876 16.145 2.88472 16.1197 2.98324 16.0718C3.08176 16.0238 3.17086 15.9541 3.24535 15.8667L15.8633 1.56214C16.0147 1.39051 16.0998 1.15775 16.0998 0.915059C16.0998 0.672366 16.0155 0.43961 15.8642 0.267974ZM3.41816 11.2693L5.48536 8.92628C5.42641 8.64494 5.3958 8.35693 5.39411 8.06777C5.39411 5.89038 7.00103 4.12394 8.98345 4.12394C9.21439 4.12394 9.43888 4.15323 9.65771 4.19899L10.6291 3.09886C10.0852 2.99671 9.53482 2.94468 8.98345 2.94326C3.68625 2.94235 0.908447 7.36394 0.908447 8.06777C0.908447 8.45492 1.76197 9.98157 3.41816 11.2693ZM14.5512 4.86896L12.4823 7.21201C12.5381 7.48841 12.572 7.77306 12.572 8.06777C12.572 10.2452 10.9659 12.0098 8.98345 12.0098C8.75412 12.0098 8.53125 11.9805 8.31403 11.9356L7.3418 13.0367C7.86021 13.1319 8.40447 13.1923 8.98345 13.1923C14.2806 13.1923 17.0584 8.76886 17.0584 8.06777C17.0584 7.6797 16.2057 6.15489 14.5512 4.86896Z" fill="black"/>
</svg>
