<svg width="20" height="20" viewBox="0 0 20 20" fill="none" xmlns="http://www.w3.org/2000/svg">
<path d="M10.002 13.0039C11.6589 13.0039 13.002 11.6608 13.002 10.0039C13.002 8.34705 11.6589 7.00391 10.002 7.00391C8.34516 7.00391 7.00201 8.34705 7.00201 10.0039C7.00201 11.6608 8.34516 13.0039 10.002 13.0039Z" fill="black"/>
<path d="M20.002 9.00391H17.933C17.7083 7.2442 16.9058 5.60888 15.6514 4.35448C14.397 3.10008 12.7617 2.29759 11.002 2.07291V0.00390625H9.00201V2.07291C7.24231 2.29759 5.60698 3.10008 4.35258 4.35448C3.09819 5.60888 2.2957 7.2442 2.07101 9.00391H0.00201416V11.0039H2.07101C2.2957 12.7636 3.09819 14.3989 4.35258 15.6533C5.60698 16.9077 7.24231 17.7102 9.00201 17.9349V20.0039H11.002V17.9349C12.7617 17.7102 14.397 16.9077 15.6514 15.6533C16.9058 14.3989 17.7083 12.7636 17.933 11.0039H20.002V9.00391ZM10.002 16.0039C6.69301 16.0039 4.00201 13.3129 4.00201 10.0039C4.00201 6.69491 6.69301 4.00391 10.002 4.00391C13.311 4.00391 16.002 6.69491 16.002 10.0039C16.002 13.3129 13.311 16.0039 10.002 16.0039Z" fill="black"/>
</svg>
