<svg width="17" height="17" viewBox="0 0 17 17" fill="none" xmlns="http://www.w3.org/2000/svg">
<path d="M16.5433 7.39492L16.5422 7.39376L9.60682 0.458681C9.31118 0.162878 8.91815 0 8.50011 0C8.08204 0 7.68901 0.162778 7.39327 0.458549L0.461514 7.39011C0.459189 7.39243 0.456865 7.39489 0.45454 7.39725C-0.152541 8.00778 -0.151479 8.9984 0.457529 9.60741C0.735733 9.88578 1.10323 10.047 1.49613 10.0639C1.51207 10.0654 1.52817 10.0662 1.54438 10.0662H1.82079V15.17C1.82079 16.18 2.64252 17.0017 3.65273 17.0017H6.36603C6.64105 17.0017 6.86413 16.7788 6.86413 16.5036V12.5023C6.86413 12.0414 7.23903 11.6665 7.6999 11.6665H9.30029C9.7612 11.6665 10.136 12.0414 10.136 12.5023V16.5036C10.136 16.7788 10.359 17.0017 10.6341 17.0017H13.3475C14.3577 17.0017 15.1794 16.18 15.1794 15.1701V10.0662H15.4357C15.8537 10.0662 16.2467 9.90344 16.5426 9.60771C17.1522 8.99767 17.1525 8.00536 16.5433 7.39492Z" fill="black"/>
</svg>
