<svg width="60" height="61" viewBox="0 0 60 61" fill="none" xmlns="http://www.w3.org/2000/svg">
<path d="M30.0168 24.0985C36.6714 24.0985 42.0661 18.7039 42.0661 12.0493C42.0661 5.39464 36.6714 0 30.0168 0C23.3622 0 17.9675 5.39464 17.9675 12.0493C17.9675 18.7039 23.3622 24.0985 30.0168 24.0985Z" fill="black"/>
<path d="M59.8588 51.9725C58.6089 46.2818 55.7429 41.0728 51.605 36.9712C50.6007 35.9633 49.5123 35.0429 48.3517 34.2199C43.0662 30.2552 36.6237 28.1383 30.0168 28.1953C21.938 28.1539 14.1706 31.3085 8.40842 36.9712C4.27051 41.0728 1.40455 46.2818 0.154677 51.9725C-0.0625692 52.9787 -0.050834 54.021 0.189015 55.0221C0.428864 56.0232 0.890692 56.9576 1.54034 57.7561C2.21314 58.5719 3.06037 59.2263 4.01962 59.6711C4.97887 60.116 6.0257 60.34 7.083 60.3266H52.9505C54.0109 60.3273 55.0579 60.0894 56.0139 59.6305C56.9699 59.1716 57.8103 58.5036 58.4731 57.6758C59.1111 56.8866 59.5662 55.9658 59.8058 54.9796C60.0454 53.9935 60.0635 52.9665 59.8588 51.9725Z" fill="black"/>
</svg>
