<svg width="15" height="15" viewBox="0 0 15 15" fill="none" xmlns="http://www.w3.org/2000/svg">
<path d="M12.0473 14.9558C11.5141 15.3356 8.09322 12.9284 7.43804 12.9231C6.78286 12.9178 3.32346 15.2697 2.79653 14.8814C2.26961 14.4931 3.50838 10.505 3.31097 9.88208C3.11356 9.25914 -0.198615 6.70512 0.00886186 6.08541C0.216384 5.46571 4.40288 5.40815 4.93602 5.0284C5.46917 4.6487 6.88157 0.718393 7.5368 0.723638C8.19193 0.728929 9.54053 4.68145 10.0675 5.06972C10.5944 5.45796 14.7795 5.58293 14.9769 6.20587C15.1743 6.82881 11.8213 9.3292 11.6138 9.9489C11.4063 10.5686 12.5804 14.5761 12.0473 14.9558Z" fill="#F8B84E"/>
</svg>
